<mxfile host="app.diagrams.net" modified="2021-11-08T11:34:15.935Z" agent="5.0 (Windows NT 10.0; Win64; x64) AppleWebKit/537.36 (KHTML, like Gecko) Chrome/95.0.4638.69 Safari/537.36" etag="TKv0bUd2TjtVLvi9J2bE" version="15.7.0" type="github">
  <diagram id="LKAplenjJ5uR3z4QHYQ-" name="페이지-1">
    <mxGraphModel dx="3076" dy="3110" grid="1" gridSize="10" guides="1" tooltips="1" connect="1" arrows="1" fold="1" page="1" pageScale="1" pageWidth="827" pageHeight="1169" math="0" shadow="0">
      <root>
        <mxCell id="0" />
        <mxCell id="1" parent="0" />
        <mxCell id="cHWenCPkh5nBEhxCHhPZ-91" value="&amp;nbsp; &amp;nbsp; &amp;nbsp; &amp;nbsp; &amp;nbsp; &amp;nbsp; &amp;nbsp; &amp;nbsp; &amp;nbsp; &amp;nbsp; &amp;nbsp; &amp;nbsp; &amp;nbsp; &amp;nbsp; &amp;nbsp; &amp;nbsp; &amp;nbsp; &amp;nbsp; &amp;nbsp; &amp;nbsp; &amp;nbsp; &amp;nbsp; &amp;nbsp; &amp;nbsp; &amp;nbsp; &amp;nbsp; &amp;nbsp; &amp;nbsp; &amp;nbsp; &amp;nbsp; &amp;nbsp; &amp;nbsp; &amp;nbsp; &amp;nbsp; &amp;nbsp; &amp;nbsp; &amp;nbsp; &amp;nbsp; &amp;nbsp; &amp;nbsp; &amp;nbsp; &amp;nbsp; 회원(UsersFilter적용)" style="rounded=0;whiteSpace=wrap;html=1;fontSize=30;align=left;verticalAlign=top;strokeWidth=7;strokeColor=#D6B656;fillColor=#FFfbCb;fontColor=#806C33;spacingTop=7;" parent="1" vertex="1">
          <mxGeometry x="-150" y="630" width="1000" height="750" as="geometry" />
        </mxCell>
        <mxCell id="Cjj9x0MrMo0YAK2Xyfjq-55" value="" style="endArrow=classic;html=1;rounded=0;fontSize=12;fontColor=#0000FF;strokeColor=none;exitX=0.708;exitY=0;exitDx=0;exitDy=0;exitPerimeter=0;" parent="1" edge="1">
          <mxGeometry width="50" height="50" relative="1" as="geometry">
            <mxPoint x="623.96" y="535" as="sourcePoint" />
            <mxPoint x="624" y="435" as="targetPoint" />
          </mxGeometry>
        </mxCell>
        <mxCell id="cHWenCPkh5nBEhxCHhPZ-2" value="&lt;font color=&quot;#ff6666&quot;&gt;&lt;b&gt;메인 화면&lt;/b&gt;&lt;/font&gt;&lt;br style=&quot;font-size: 30px&quot;&gt;index.jsp" style="rounded=0;whiteSpace=wrap;html=1;fontSize=30;fillColor=#fff2cc;strokeColor=#d6b656;strokeWidth=15;" parent="1" vertex="1">
          <mxGeometry x="670" y="125" width="420" height="335" as="geometry" />
        </mxCell>
        <mxCell id="cHWenCPkh5nBEhxCHhPZ-3" value="&amp;nbsp; 비회원" style="rounded=0;whiteSpace=wrap;html=1;fontSize=30;align=left;verticalAlign=top;strokeWidth=7;strokeColor=#D6B656;fillColor=#FFfbCb;fontColor=#806C33;spacingTop=7;" parent="1" vertex="1">
          <mxGeometry x="-120" y="60" width="510" height="480" as="geometry" />
        </mxCell>
        <mxCell id="cHWenCPkh5nBEhxCHhPZ-4" value="&amp;nbsp;관리자(AdminFilter적용)" style="rounded=0;whiteSpace=wrap;html=1;fontSize=30;align=left;verticalAlign=top;strokeWidth=7;strokeColor=#D6B656;fillColor=#FFFBCB;fontColor=#806C33;spacingTop=7;" parent="1" vertex="1">
          <mxGeometry x="-890" y="630" width="630" height="750" as="geometry" />
        </mxCell>
        <mxCell id="cHWenCPkh5nBEhxCHhPZ-5" value="회원관리 : /admin/users" style="rounded=0;whiteSpace=wrap;html=1;fontSize=15;align=left;verticalAlign=top;spacingLeft=7;fillColor=#fff2cc;strokeColor=#d6b656;fontColor=#FF6666;" parent="1" vertex="1">
          <mxGeometry x="-870" y="835" width="580" height="465" as="geometry" />
        </mxCell>
        <mxCell id="cHWenCPkh5nBEhxCHhPZ-6" value="&lt;font color=&quot;#ff6666&quot;&gt;&lt;b&gt;메인 화면&lt;/b&gt;&lt;/font&gt;&lt;br style=&quot;font-size: 30px&quot;&gt;index.jsp" style="rounded=0;whiteSpace=wrap;html=1;fontSize=30;fillColor=#fff2cc;strokeColor=#d6b656;strokeWidth=15;" parent="1" vertex="1">
          <mxGeometry x="670" y="125" width="420" height="335" as="geometry" />
        </mxCell>
        <mxCell id="cHWenCPkh5nBEhxCHhPZ-7" value="로그인 실시&lt;br&gt;&lt;font style=&quot;font-size: 12px&quot;&gt;/users/login.nogari&lt;/font&gt;" style="rounded=0;whiteSpace=wrap;html=1;fontSize=15;align=center;verticalAlign=middle;spacingLeft=0;fillColor=#ffe6cc;strokeColor=#d79b00;" parent="1" vertex="1">
          <mxGeometry x="170" y="345" width="130" height="50" as="geometry" />
        </mxCell>
        <mxCell id="cHWenCPkh5nBEhxCHhPZ-8" value="CREATE: 회원등록" style="rounded=0;whiteSpace=wrap;html=1;fontSize=15;align=left;verticalAlign=top;spacingLeft=7;fillColor=#fff2cc;strokeColor=#d6b656;fontColor=#FF6666;" parent="1" vertex="1">
          <mxGeometry x="-90" y="140" width="217.5" height="370" as="geometry" />
        </mxCell>
        <mxCell id="cHWenCPkh5nBEhxCHhPZ-9" value="" style="edgeStyle=orthogonalEdgeStyle;rounded=0;orthogonalLoop=1;jettySize=auto;html=1;fontSize=12;strokeColor=#0000FF;endArrow=block;endFill=1;" parent="1" source="cHWenCPkh5nBEhxCHhPZ-11" target="cHWenCPkh5nBEhxCHhPZ-12" edge="1">
          <mxGeometry relative="1" as="geometry" />
        </mxCell>
        <mxCell id="cHWenCPkh5nBEhxCHhPZ-10" value="" style="edgeStyle=orthogonalEdgeStyle;rounded=0;orthogonalLoop=1;jettySize=auto;html=1;strokeColor=#FF0000;endArrow=block;endFill=1;" parent="1" source="cHWenCPkh5nBEhxCHhPZ-11" target="cHWenCPkh5nBEhxCHhPZ-16" edge="1">
          <mxGeometry relative="1" as="geometry">
            <Array as="points">
              <mxPoint x="47.5" y="250" />
              <mxPoint x="47.5" y="250" />
            </Array>
          </mxGeometry>
        </mxCell>
        <mxCell id="cHWenCPkh5nBEhxCHhPZ-11" value="회원등록 시도&lt;br&gt;&lt;font style=&quot;font-size: 12px&quot;&gt;/users/register.nogari&lt;/font&gt;" style="rounded=0;whiteSpace=wrap;html=1;fontSize=15;align=center;verticalAlign=middle;spacingLeft=0;fillColor=#ffe6cc;strokeColor=#d79b00;" parent="1" vertex="1">
          <mxGeometry x="-72.5" y="340" width="180" height="60" as="geometry" />
        </mxCell>
        <mxCell id="cHWenCPkh5nBEhxCHhPZ-12" value="회원등록 성공 HTML&lt;br&gt;&lt;font style=&quot;font-size: 12px&quot;&gt;/users/register_success.jsp&lt;/font&gt;" style="rounded=0;whiteSpace=wrap;html=1;fontSize=15;align=center;verticalAlign=middle;spacingLeft=0;fillColor=#f5f5f5;strokeColor=#666666;fontColor=#333333;" parent="1" vertex="1">
          <mxGeometry x="-72.5" y="430" width="180" height="60" as="geometry" />
        </mxCell>
        <mxCell id="cHWenCPkh5nBEhxCHhPZ-13" value="실패 시" style="text;html=1;strokeColor=none;fillColor=none;align=center;verticalAlign=middle;whiteSpace=wrap;rounded=0;fontSize=12;fontColor=#FF0000;" parent="1" vertex="1">
          <mxGeometry x="37.5" y="275" width="60" height="30" as="geometry" />
        </mxCell>
        <mxCell id="cHWenCPkh5nBEhxCHhPZ-14" value="성공 시" style="text;html=1;strokeColor=none;fillColor=none;align=center;verticalAlign=middle;whiteSpace=wrap;rounded=0;fontSize=12;fontColor=#0000FF;" parent="1" vertex="1">
          <mxGeometry x="17.5" y="400" width="60" height="30" as="geometry" />
        </mxCell>
        <mxCell id="cHWenCPkh5nBEhxCHhPZ-15" value="&lt;div style=&quot;font-size: 12px&quot;&gt;users_id&lt;/div&gt;&lt;div style=&quot;font-size: 12px&quot;&gt;users_pw&lt;/div&gt;&lt;div style=&quot;font-size: 12px&quot;&gt;users_nick&lt;/div&gt;&lt;div style=&quot;font-size: 12px&quot;&gt;users_email&lt;/div&gt;" style="edgeStyle=orthogonalEdgeStyle;rounded=0;orthogonalLoop=1;jettySize=auto;html=1;strokeColor=#0000FF;endArrow=block;endFill=1;" parent="1" source="cHWenCPkh5nBEhxCHhPZ-16" target="cHWenCPkh5nBEhxCHhPZ-11" edge="1">
          <mxGeometry relative="1" as="geometry">
            <Array as="points">
              <mxPoint x="-12.5" y="250" />
              <mxPoint x="-12.5" y="250" />
            </Array>
          </mxGeometry>
        </mxCell>
        <mxCell id="cHWenCPkh5nBEhxCHhPZ-16" value="회원 등록정보 입력받기&lt;br&gt;&lt;font style=&quot;font-size: 12px&quot;&gt;/users/register.jsp&lt;/font&gt;" style="rounded=0;whiteSpace=wrap;html=1;fontSize=15;align=center;verticalAlign=middle;spacingLeft=0;fillColor=#f5f5f5;fontColor=#333333;strokeColor=#666666;" parent="1" vertex="1">
          <mxGeometry x="-72.5" y="180" width="180" height="60" as="geometry" />
        </mxCell>
        <mxCell id="cHWenCPkh5nBEhxCHhPZ-17" value="실패 시" style="text;html=1;strokeColor=none;fillColor=none;align=center;verticalAlign=middle;whiteSpace=wrap;rounded=0;fontSize=12;fontColor=#FF0000;" parent="1" vertex="1">
          <mxGeometry x="310" y="340" width="50" height="25" as="geometry" />
        </mxCell>
        <mxCell id="cHWenCPkh5nBEhxCHhPZ-18" value="" style="endArrow=block;html=1;rounded=0;fontSize=12;fontColor=#0000FF;strokeColor=#FF0000;endFill=1;exitX=0.75;exitY=0;exitDx=0;exitDy=0;entryX=1;entryY=0.5;entryDx=0;entryDy=0;" parent="1" source="cHWenCPkh5nBEhxCHhPZ-7" target="cHWenCPkh5nBEhxCHhPZ-7" edge="1">
          <mxGeometry x="30" y="744.3700000000001" width="50" height="50" as="geometry">
            <mxPoint x="1090" y="278" as="sourcePoint" />
            <mxPoint x="370" y="329" as="targetPoint" />
            <Array as="points">
              <mxPoint x="268" y="329" />
              <mxPoint x="370" y="329" />
              <mxPoint x="370" y="370" />
            </Array>
          </mxGeometry>
        </mxCell>
        <mxCell id="cHWenCPkh5nBEhxCHhPZ-19" value="&lt;font style=&quot;font-size: 15px&quot;&gt;관리자 메인페이지&lt;br&gt;&lt;/font&gt;&lt;span style=&quot;font-size: 12px&quot;&gt;/admin/main.jsp&lt;/span&gt;" style="rounded=0;whiteSpace=wrap;html=1;fontSize=15;align=center;verticalAlign=middle;spacingLeft=0;fillColor=#e1d5e7;strokeColor=#9673a6;" parent="1" vertex="1">
          <mxGeometry x="-486" y="720" width="180" height="60" as="geometry" />
        </mxCell>
        <mxCell id="cHWenCPkh5nBEhxCHhPZ-20" value="&lt;font style=&quot;font-size: 15px&quot;&gt;회원 목록, 검색 페이지&lt;br&gt;&lt;/font&gt;&lt;span style=&quot;font-size: 12px&quot;&gt;/admin/users/list.jsp&lt;/span&gt;" style="rounded=0;whiteSpace=wrap;html=1;fontSize=15;align=center;verticalAlign=middle;spacingLeft=0;fillColor=#f5f5f5;fontColor=#333333;strokeColor=#666666;" parent="1" vertex="1">
          <mxGeometry x="-510" y="885" width="180" height="60" as="geometry" />
        </mxCell>
        <mxCell id="cHWenCPkh5nBEhxCHhPZ-21" value="&lt;font style=&quot;font-size: 15px&quot;&gt;회원 상세정보 페이지&lt;br&gt;&lt;/font&gt;&lt;span style=&quot;font-size: 12px&quot;&gt;/admin/users/detail.jsp&lt;/span&gt;" style="rounded=0;whiteSpace=wrap;html=1;fontSize=15;align=center;verticalAlign=middle;spacingLeft=0;fillColor=#f5f5f5;fontColor=#333333;strokeColor=#666666;" parent="1" vertex="1">
          <mxGeometry x="-620" y="1225" width="180" height="60" as="geometry" />
        </mxCell>
        <mxCell id="cHWenCPkh5nBEhxCHhPZ-22" value="&lt;font style=&quot;font-size: 15px&quot;&gt;회원 정보변경 페이지&lt;br&gt;&lt;/font&gt;&lt;span style=&quot;font-size: 12px&quot;&gt;/admin/users/edit.jsp&lt;/span&gt;" style="rounded=0;whiteSpace=wrap;html=1;fontSize=15;align=center;verticalAlign=middle;spacingLeft=0;fillColor=#f5f5f5;fontColor=#333333;strokeColor=#666666;" parent="1" vertex="1">
          <mxGeometry x="-620" y="1110" width="180" height="60" as="geometry" />
        </mxCell>
        <mxCell id="cHWenCPkh5nBEhxCHhPZ-23" value="회원탈퇴 처리&amp;nbsp;&lt;br&gt;&lt;font style=&quot;font-size: 12px&quot;&gt;/admin/users/unregister.nogari&lt;/font&gt;" style="rounded=0;whiteSpace=wrap;html=1;fontSize=15;align=center;verticalAlign=middle;spacingLeft=0;fillColor=#ffe6cc;strokeColor=#d79b00;" parent="1" vertex="1">
          <mxGeometry x="-860" y="1110" width="180" height="60" as="geometry" />
        </mxCell>
        <mxCell id="cHWenCPkh5nBEhxCHhPZ-24" value="" style="endArrow=classic;html=1;rounded=0;exitX=0;exitY=0.75;exitDx=0;exitDy=0;strokeColor=#0000FF;entryX=0.25;entryY=1;entryDx=0;entryDy=0;" parent="1" source="cHWenCPkh5nBEhxCHhPZ-21" target="cHWenCPkh5nBEhxCHhPZ-23" edge="1">
          <mxGeometry width="50" height="50" relative="1" as="geometry">
            <mxPoint x="-450" y="1075" as="sourcePoint" />
            <mxPoint x="-400" y="1025" as="targetPoint" />
            <Array as="points">
              <mxPoint x="-815" y="1270" />
            </Array>
          </mxGeometry>
        </mxCell>
        <mxCell id="cHWenCPkh5nBEhxCHhPZ-25" value="" style="endArrow=classic;html=1;rounded=0;entryX=0;entryY=0.75;entryDx=0;entryDy=0;exitX=0.75;exitY=0;exitDx=0;exitDy=0;strokeColor=#0000FF;" parent="1" source="cHWenCPkh5nBEhxCHhPZ-23" target="cHWenCPkh5nBEhxCHhPZ-20" edge="1">
          <mxGeometry width="50" height="50" relative="1" as="geometry">
            <mxPoint x="-450" y="1075" as="sourcePoint" />
            <mxPoint x="-400" y="1025" as="targetPoint" />
            <Array as="points">
              <mxPoint x="-725" y="930" />
            </Array>
          </mxGeometry>
        </mxCell>
        <mxCell id="cHWenCPkh5nBEhxCHhPZ-28" value="성공 시" style="text;html=1;strokeColor=none;fillColor=none;align=center;verticalAlign=middle;whiteSpace=wrap;rounded=0;fontSize=12;fontColor=#0000FF;" parent="1" vertex="1">
          <mxGeometry x="-720" y="935" width="55" height="20" as="geometry" />
        </mxCell>
        <mxCell id="cHWenCPkh5nBEhxCHhPZ-29" style="edgeStyle=orthogonalEdgeStyle;rounded=0;orthogonalLoop=1;jettySize=auto;html=1;exitX=0.5;exitY=1;exitDx=0;exitDy=0;strokeColor=#0000FF;" parent="1" edge="1">
          <mxGeometry relative="1" as="geometry">
            <mxPoint x="-670" y="1265" as="sourcePoint" />
            <mxPoint x="-670" y="1265" as="targetPoint" />
          </mxGeometry>
        </mxCell>
        <mxCell id="cHWenCPkh5nBEhxCHhPZ-30" value="회원 정보변경 처리&amp;nbsp;&lt;br&gt;&lt;font style=&quot;font-size: 12px&quot;&gt;/admin/users/edit.nogari&lt;/font&gt;" style="rounded=0;whiteSpace=wrap;html=1;fontSize=15;align=center;verticalAlign=middle;spacingLeft=0;fillColor=#ffe6cc;strokeColor=#d79b00;" parent="1" vertex="1">
          <mxGeometry x="-620" y="955" width="180" height="60" as="geometry" />
        </mxCell>
        <mxCell id="cHWenCPkh5nBEhxCHhPZ-31" value="" style="endArrow=classic;html=1;rounded=0;exitX=0.5;exitY=0;exitDx=0;exitDy=0;strokeColor=#0000FF;entryX=0.5;entryY=1;entryDx=0;entryDy=0;" parent="1" source="cHWenCPkh5nBEhxCHhPZ-21" target="cHWenCPkh5nBEhxCHhPZ-22" edge="1">
          <mxGeometry width="50" height="50" relative="1" as="geometry">
            <mxPoint x="-610" y="1280" as="sourcePoint" />
            <mxPoint x="-885" y="1185" as="targetPoint" />
            <Array as="points" />
          </mxGeometry>
        </mxCell>
        <mxCell id="cHWenCPkh5nBEhxCHhPZ-34" value="" style="endArrow=classic;html=1;rounded=0;exitX=0.5;exitY=1;exitDx=0;exitDy=0;strokeColor=#0000FF;entryX=1;entryY=0.25;entryDx=0;entryDy=0;" parent="1" source="cHWenCPkh5nBEhxCHhPZ-20" target="cHWenCPkh5nBEhxCHhPZ-21" edge="1">
          <mxGeometry width="50" height="50" relative="1" as="geometry">
            <mxPoint x="-430" y="1025" as="sourcePoint" />
            <mxPoint x="-430" y="1265" as="targetPoint" />
            <Array as="points">
              <mxPoint x="-420" y="1240" />
            </Array>
          </mxGeometry>
        </mxCell>
        <mxCell id="cHWenCPkh5nBEhxCHhPZ-35" value="" style="endArrow=none;html=1;rounded=0;exitX=0;exitY=0.5;exitDx=0;exitDy=0;strokeColor=#0000FF;entryX=0.5;entryY=0;entryDx=0;entryDy=0;" parent="1" source="cHWenCPkh5nBEhxCHhPZ-30" edge="1">
          <mxGeometry width="50" height="50" relative="1" as="geometry">
            <mxPoint x="-440" y="1015" as="sourcePoint" />
            <mxPoint x="-650" y="1065" as="targetPoint" />
            <Array as="points">
              <mxPoint x="-650" y="1015" />
            </Array>
          </mxGeometry>
        </mxCell>
        <mxCell id="cHWenCPkh5nBEhxCHhPZ-36" value="" style="endArrow=classic;html=1;rounded=0;strokeColor=#0000FF;exitX=0.5;exitY=1;exitDx=0;exitDy=0;entryX=0;entryY=0.25;entryDx=0;entryDy=0;" parent="1" target="cHWenCPkh5nBEhxCHhPZ-21" edge="1">
          <mxGeometry width="50" height="50" relative="1" as="geometry">
            <mxPoint x="-650" y="1085" as="sourcePoint" />
            <mxPoint x="-430" y="1005" as="targetPoint" />
            <Array as="points">
              <mxPoint x="-650" y="1215" />
            </Array>
          </mxGeometry>
        </mxCell>
        <mxCell id="cHWenCPkh5nBEhxCHhPZ-37" value="성공 시&lt;br&gt;" style="text;html=1;strokeColor=none;fillColor=none;align=center;verticalAlign=middle;whiteSpace=wrap;rounded=0;fontSize=12;fontColor=#0000FF;" parent="1" vertex="1">
          <mxGeometry x="-680" y="1065" width="55" height="20" as="geometry" />
        </mxCell>
        <mxCell id="cHWenCPkh5nBEhxCHhPZ-38" value="" style="endArrow=classic;html=1;rounded=0;strokeColor=#0000FF;exitX=0.5;exitY=1;exitDx=0;exitDy=0;" parent="1" source="cHWenCPkh5nBEhxCHhPZ-20" edge="1">
          <mxGeometry width="50" height="50" relative="1" as="geometry">
            <mxPoint x="-410" y="1055" as="sourcePoint" />
            <mxPoint x="-440" y="1125" as="targetPoint" />
            <Array as="points">
              <mxPoint x="-420" y="1125" />
            </Array>
          </mxGeometry>
        </mxCell>
        <mxCell id="cHWenCPkh5nBEhxCHhPZ-39" value="" style="endArrow=classic;html=1;rounded=0;exitX=0.75;exitY=0;exitDx=0;exitDy=0;strokeColor=#0000FF;entryX=0.75;entryY=1;entryDx=0;entryDy=0;" parent="1" source="cHWenCPkh5nBEhxCHhPZ-22" target="cHWenCPkh5nBEhxCHhPZ-30" edge="1">
          <mxGeometry width="50" height="50" relative="1" as="geometry">
            <mxPoint x="-520" y="1235" as="sourcePoint" />
            <mxPoint x="-520" y="1180" as="targetPoint" />
            <Array as="points" />
          </mxGeometry>
        </mxCell>
        <mxCell id="cHWenCPkh5nBEhxCHhPZ-40" value="" style="endArrow=classic;html=1;rounded=0;fontColor=#CC0000;strokeColor=#0000FF;exitX=1;exitY=0.75;exitDx=0;exitDy=0;entryX=0.75;entryY=1;entryDx=0;entryDy=0;" parent="1" source="cHWenCPkh5nBEhxCHhPZ-22" target="cHWenCPkh5nBEhxCHhPZ-20" edge="1">
          <mxGeometry width="50" height="50" relative="1" as="geometry">
            <mxPoint x="-350" y="1175" as="sourcePoint" />
            <mxPoint x="-300" y="1125" as="targetPoint" />
            <Array as="points">
              <mxPoint x="-375" y="1155" />
            </Array>
          </mxGeometry>
        </mxCell>
        <mxCell id="cHWenCPkh5nBEhxCHhPZ-41" value="" style="endArrow=classic;html=1;rounded=0;fontColor=#CC0000;strokeColor=#0000FF;exitX=1;exitY=0.75;exitDx=0;exitDy=0;entryX=0.75;entryY=1;entryDx=0;entryDy=0;" parent="1" source="cHWenCPkh5nBEhxCHhPZ-21" target="cHWenCPkh5nBEhxCHhPZ-20" edge="1">
          <mxGeometry width="50" height="50" relative="1" as="geometry">
            <mxPoint x="-430" y="1165" as="sourcePoint" />
            <mxPoint x="-365" y="965" as="targetPoint" />
            <Array as="points">
              <mxPoint x="-375" y="1270" />
            </Array>
          </mxGeometry>
        </mxCell>
        <mxCell id="cHWenCPkh5nBEhxCHhPZ-42" value="SELECT: 조회" style="rounded=0;whiteSpace=wrap;html=1;fontSize=15;align=left;verticalAlign=top;spacingLeft=7;fillColor=#fff2cc;strokeColor=#d6b656;fontColor=#FF6666;" parent="1" vertex="1">
          <mxGeometry x="161.88" y="740" width="296.25" height="110" as="geometry" />
        </mxCell>
        <mxCell id="cHWenCPkh5nBEhxCHhPZ-43" value="&lt;font&gt;회원상세정보&lt;br&gt;&lt;/font&gt;&lt;font style=&quot;font-size: 12px&quot;&gt;/users/detail.jsp&lt;/font&gt;" style="rounded=0;whiteSpace=wrap;html=1;fontSize=15;align=center;verticalAlign=middle;spacingLeft=0;fillColor=#f5f5f5;fontColor=#333333;strokeColor=#666666;" parent="1" vertex="1">
          <mxGeometry x="228.13" y="770" width="200" height="60" as="geometry" />
        </mxCell>
        <mxCell id="cHWenCPkh5nBEhxCHhPZ-44" value="DELETE: 회원탈퇴" style="rounded=0;whiteSpace=wrap;html=1;fontSize=15;align=left;verticalAlign=top;spacingLeft=7;fillColor=#fff2cc;strokeColor=#d6b656;fontColor=#FF6666;" parent="1" vertex="1">
          <mxGeometry x="530" y="920" width="240" height="400" as="geometry" />
        </mxCell>
        <mxCell id="cHWenCPkh5nBEhxCHhPZ-45" value="" style="edgeStyle=orthogonalEdgeStyle;rounded=0;orthogonalLoop=1;jettySize=auto;html=1;strokeColor=#FF0000;endArrow=block;endFill=1;" parent="1" source="cHWenCPkh5nBEhxCHhPZ-46" target="cHWenCPkh5nBEhxCHhPZ-49" edge="1">
          <mxGeometry relative="1" as="geometry">
            <Array as="points">
              <mxPoint x="670" y="1100" />
              <mxPoint x="670" y="1100" />
            </Array>
          </mxGeometry>
        </mxCell>
        <mxCell id="cHWenCPkh5nBEhxCHhPZ-46" value="회원탈퇴 시도&lt;br&gt;&lt;font style=&quot;font-size: 12px&quot;&gt;/users/unregister.nogari&lt;/font&gt;" style="rounded=0;whiteSpace=wrap;html=1;fontSize=15;align=center;verticalAlign=middle;spacingLeft=0;fillColor=#ffe6cc;strokeColor=#d79b00;" parent="1" vertex="1">
          <mxGeometry x="550" y="1120" width="200" height="60" as="geometry" />
        </mxCell>
        <mxCell id="cHWenCPkh5nBEhxCHhPZ-47" value="회원탈퇴 성공 HTML&lt;br&gt;&lt;font style=&quot;font-size: 12px&quot;&gt;/users/unregister_success.jsp&lt;/font&gt;" style="rounded=0;whiteSpace=wrap;html=1;fontSize=15;align=center;verticalAlign=middle;spacingLeft=0;fillColor=#f5f5f5;strokeColor=#666666;fontColor=#333333;" parent="1" vertex="1">
          <mxGeometry x="550" y="1245" width="200" height="60" as="geometry" />
        </mxCell>
        <mxCell id="cHWenCPkh5nBEhxCHhPZ-48" value="&lt;font style=&quot;font-size: 12px&quot;&gt;users_pw&lt;/font&gt;" style="edgeStyle=orthogonalEdgeStyle;rounded=0;orthogonalLoop=1;jettySize=auto;html=1;strokeColor=#0000FF;endArrow=block;endFill=1;" parent="1" source="cHWenCPkh5nBEhxCHhPZ-49" target="cHWenCPkh5nBEhxCHhPZ-46" edge="1">
          <mxGeometry relative="1" as="geometry">
            <Array as="points">
              <mxPoint x="620" y="1060" />
              <mxPoint x="620" y="1060" />
            </Array>
          </mxGeometry>
        </mxCell>
        <mxCell id="cHWenCPkh5nBEhxCHhPZ-49" value="회원탈퇴 위한 비번입력&lt;br&gt;&lt;font style=&quot;font-size: 12px&quot;&gt;/users/unregister.jsp&lt;/font&gt;" style="rounded=0;whiteSpace=wrap;html=1;fontSize=15;align=center;verticalAlign=middle;spacingLeft=0;fillColor=#f5f5f5;fontColor=#333333;strokeColor=#666666;" parent="1" vertex="1">
          <mxGeometry x="550" y="960" width="200" height="60" as="geometry" />
        </mxCell>
        <mxCell id="cHWenCPkh5nBEhxCHhPZ-50" value="실패 시" style="text;html=1;strokeColor=none;fillColor=none;align=center;verticalAlign=middle;whiteSpace=wrap;rounded=0;fontSize=12;fontColor=#FF0000;" parent="1" vertex="1">
          <mxGeometry x="670" y="1055" width="50" height="25" as="geometry" />
        </mxCell>
        <mxCell id="cHWenCPkh5nBEhxCHhPZ-51" value="성공 시" style="text;html=1;strokeColor=none;fillColor=none;align=center;verticalAlign=middle;whiteSpace=wrap;rounded=0;fontSize=12;fontColor=#0000FF;" parent="1" vertex="1">
          <mxGeometry x="600" y="1200" width="49" height="20" as="geometry" />
        </mxCell>
        <mxCell id="cHWenCPkh5nBEhxCHhPZ-52" value="UPDATE: 일반수정" style="rounded=0;whiteSpace=wrap;html=1;fontSize=15;align=left;verticalAlign=top;spacingLeft=7;fillColor=#fff2cc;strokeColor=#d6b656;fontColor=#FF6666;" parent="1" vertex="1">
          <mxGeometry x="320" y="920" width="200" height="290" as="geometry" />
        </mxCell>
        <mxCell id="cHWenCPkh5nBEhxCHhPZ-53" value="UPDATE: 비번수정" style="rounded=0;whiteSpace=wrap;html=1;fontSize=15;align=left;verticalAlign=top;spacingLeft=7;fillColor=#fff2cc;strokeColor=#d6b656;fontColor=#FF6666;" parent="1" vertex="1">
          <mxGeometry x="90" y="920" width="220" height="290" as="geometry" />
        </mxCell>
        <mxCell id="cHWenCPkh5nBEhxCHhPZ-54" value="" style="edgeStyle=orthogonalEdgeStyle;rounded=0;orthogonalLoop=1;jettySize=auto;html=1;strokeColor=#FF0000;endArrow=block;endFill=1;" parent="1" source="cHWenCPkh5nBEhxCHhPZ-55" target="cHWenCPkh5nBEhxCHhPZ-59" edge="1">
          <mxGeometry relative="1" as="geometry">
            <Array as="points">
              <mxPoint x="470" y="1090" />
              <mxPoint x="470" y="1090" />
            </Array>
          </mxGeometry>
        </mxCell>
        <mxCell id="cHWenCPkh5nBEhxCHhPZ-55" value="회원 정보 수정 시도&lt;br&gt;&lt;font style=&quot;font-size: 12px&quot;&gt;/users/modify.nogari&lt;/font&gt;" style="rounded=0;whiteSpace=wrap;html=1;fontSize=15;align=center;verticalAlign=middle;spacingLeft=0;fillColor=#ffe6cc;strokeColor=#d79b00;fontColor=default;" parent="1" vertex="1">
          <mxGeometry x="335" y="1120" width="170" height="60" as="geometry" />
        </mxCell>
        <mxCell id="cHWenCPkh5nBEhxCHhPZ-56" value="회원 수정 성공 HTML&lt;br&gt;&lt;font style=&quot;font-size: 12px&quot;&gt;/users/modify_success.jsp&lt;/font&gt;" style="rounded=0;whiteSpace=wrap;html=1;fontSize=15;align=center;verticalAlign=middle;spacingLeft=0;fillColor=#f5f5f5;strokeColor=#666666;fontColor=#333333;" parent="1" vertex="1">
          <mxGeometry x="220" y="1250" width="180" height="50" as="geometry" />
        </mxCell>
        <mxCell id="cHWenCPkh5nBEhxCHhPZ-57" value="실패 시" style="text;html=1;strokeColor=none;fillColor=none;align=center;verticalAlign=middle;whiteSpace=wrap;rounded=0;fontSize=12;fontColor=#FF0000;" parent="1" vertex="1">
          <mxGeometry x="465" y="1055" width="60" height="30" as="geometry" />
        </mxCell>
        <mxCell id="cHWenCPkh5nBEhxCHhPZ-58" value="성공 시" style="text;html=1;strokeColor=none;fillColor=none;align=center;verticalAlign=middle;whiteSpace=wrap;rounded=0;fontSize=12;fontColor=#0000FF;" parent="1" vertex="1">
          <mxGeometry x="415" y="1185" width="50" height="20" as="geometry" />
        </mxCell>
        <mxCell id="cHWenCPkh5nBEhxCHhPZ-59" value="회원 정보 수정 입력받기&lt;br&gt;&lt;font style=&quot;font-size: 12px&quot;&gt;/users/modify.jsp&lt;/font&gt;" style="rounded=0;whiteSpace=wrap;html=1;fontSize=15;align=center;verticalAlign=middle;spacingLeft=0;fillColor=#f5f5f5;fontColor=#333333;strokeColor=#666666;" parent="1" vertex="1">
          <mxGeometry x="335" y="960" width="170" height="60" as="geometry" />
        </mxCell>
        <mxCell id="cHWenCPkh5nBEhxCHhPZ-60" value="" style="edgeStyle=orthogonalEdgeStyle;rounded=0;orthogonalLoop=1;jettySize=auto;html=1;strokeColor=#FF0000;endArrow=block;endFill=1;" parent="1" source="cHWenCPkh5nBEhxCHhPZ-61" target="cHWenCPkh5nBEhxCHhPZ-65" edge="1">
          <mxGeometry relative="1" as="geometry">
            <Array as="points">
              <mxPoint x="220" y="1070" />
              <mxPoint x="220" y="1070" />
            </Array>
          </mxGeometry>
        </mxCell>
        <mxCell id="cHWenCPkh5nBEhxCHhPZ-61" value="회원 정보 수정 시도&lt;br&gt;&lt;font style=&quot;font-size: 12px&quot;&gt;/users/modifyPassword.nogari&lt;/font&gt;" style="rounded=0;whiteSpace=wrap;html=1;fontSize=15;align=center;verticalAlign=middle;spacingLeft=0;fillColor=#ffe6cc;strokeColor=#d79b00;fontColor=default;" parent="1" vertex="1">
          <mxGeometry x="103.75" y="1120" width="192.5" height="60" as="geometry" />
        </mxCell>
        <mxCell id="cHWenCPkh5nBEhxCHhPZ-62" value="실패 시" style="text;html=1;strokeColor=none;fillColor=none;align=center;verticalAlign=middle;whiteSpace=wrap;rounded=0;fontSize=12;fontColor=#FF0000;" parent="1" vertex="1">
          <mxGeometry x="220" y="1055" width="50" height="25" as="geometry" />
        </mxCell>
        <mxCell id="cHWenCPkh5nBEhxCHhPZ-63" value="성공 시" style="text;html=1;strokeColor=none;fillColor=none;align=center;verticalAlign=middle;whiteSpace=wrap;rounded=0;fontSize=12;fontColor=#0000FF;" parent="1" vertex="1">
          <mxGeometry x="190" y="1180" width="60" height="30" as="geometry" />
        </mxCell>
        <mxCell id="cHWenCPkh5nBEhxCHhPZ-64" value="&lt;div style=&quot;font-size: 12px&quot;&gt;users_pw&lt;/div&gt;&lt;div style=&quot;font-size: 12px&quot;&gt;users_pw_new&lt;/div&gt;" style="edgeStyle=orthogonalEdgeStyle;rounded=0;orthogonalLoop=1;jettySize=auto;html=1;strokeColor=#0000FF;endArrow=block;endFill=1;" parent="1" source="cHWenCPkh5nBEhxCHhPZ-65" target="cHWenCPkh5nBEhxCHhPZ-61" edge="1">
          <mxGeometry relative="1" as="geometry">
            <Array as="points">
              <mxPoint x="162.5" y="1030" />
              <mxPoint x="162.5" y="1030" />
            </Array>
          </mxGeometry>
        </mxCell>
        <mxCell id="cHWenCPkh5nBEhxCHhPZ-65" value="회원 비번 수정 입력받기&lt;br&gt;&lt;font style=&quot;font-size: 12px&quot;&gt;/users/modifyPassword.jsp&lt;/font&gt;" style="rounded=0;whiteSpace=wrap;html=1;fontSize=15;align=center;verticalAlign=middle;spacingLeft=0;fillColor=#f5f5f5;fontColor=#333333;strokeColor=#666666;" parent="1" vertex="1">
          <mxGeometry x="103.75" y="960" width="192.5" height="60" as="geometry" />
        </mxCell>
        <mxCell id="cHWenCPkh5nBEhxCHhPZ-66" value="" style="endArrow=block;html=1;rounded=0;sketch=0;fontColor=#FF6666;strokeColor=#0000FF;fillColor=#A8DADC;exitX=0.5;exitY=1;exitDx=0;exitDy=0;entryX=0.5;entryY=0;entryDx=0;entryDy=0;endFill=1;" parent="1" source="cHWenCPkh5nBEhxCHhPZ-55" target="cHWenCPkh5nBEhxCHhPZ-56" edge="1">
          <mxGeometry x="200" y="1220" width="50" height="50" as="geometry">
            <mxPoint x="290" y="1270" as="sourcePoint" />
            <mxPoint x="320" y="1260" as="targetPoint" />
            <Array as="points">
              <mxPoint x="420" y="1230" />
              <mxPoint x="310" y="1230" />
            </Array>
          </mxGeometry>
        </mxCell>
        <mxCell id="cHWenCPkh5nBEhxCHhPZ-67" value="" style="endArrow=block;html=1;rounded=0;labelBackgroundColor=default;fontSize=18;fontColor=#0000FF;strokeColor=#0000FF;exitX=0.5;exitY=1;exitDx=0;exitDy=0;entryX=0.5;entryY=0;entryDx=0;entryDy=0;endFill=1;" parent="1" source="cHWenCPkh5nBEhxCHhPZ-46" target="cHWenCPkh5nBEhxCHhPZ-47" edge="1">
          <mxGeometry width="50" height="50" relative="1" as="geometry">
            <mxPoint x="350" y="1310" as="sourcePoint" />
            <mxPoint x="400" y="1260" as="targetPoint" />
          </mxGeometry>
        </mxCell>
        <mxCell id="cHWenCPkh5nBEhxCHhPZ-68" value="" style="endArrow=block;html=1;rounded=0;labelBackgroundColor=default;fontSize=18;fontColor=default;strokeColor=#0000FF;exitX=0.323;exitY=1.006;exitDx=0;exitDy=0;exitPerimeter=0;entryX=0.315;entryY=-0.039;entryDx=0;entryDy=0;entryPerimeter=0;endFill=1;" parent="1" source="cHWenCPkh5nBEhxCHhPZ-59" target="cHWenCPkh5nBEhxCHhPZ-55" edge="1">
          <mxGeometry width="50" height="50" relative="1" as="geometry">
            <mxPoint x="502.5" y="980" as="sourcePoint" />
            <mxPoint x="552.5" y="930" as="targetPoint" />
          </mxGeometry>
        </mxCell>
        <mxCell id="cHWenCPkh5nBEhxCHhPZ-69" value="&lt;div style=&quot;font-size: 12px&quot;&gt;users_id&lt;/div&gt;&lt;div style=&quot;font-size: 12px&quot;&gt;(sessionId)&lt;/div&gt;&lt;div style=&quot;font-size: 12px&quot;&gt;users_pw&lt;/div&gt;&lt;div style=&quot;font-size: 12px&quot;&gt;users_nick&lt;/div&gt;&lt;div style=&quot;font-size: 12px&quot;&gt;users_email&lt;/div&gt;&lt;div style=&quot;font-size: 12px&quot;&gt;users_phone&lt;/div&gt;" style="text;html=1;strokeColor=none;align=center;verticalAlign=middle;whiteSpace=wrap;rounded=0;fontSize=18;fontColor=default;fillColor=#ffffff;" parent="1" vertex="1">
          <mxGeometry x="360" y="1025" width="70" height="75" as="geometry" />
        </mxCell>
        <mxCell id="cHWenCPkh5nBEhxCHhPZ-70" value="" style="endArrow=block;html=1;rounded=0;labelBackgroundColor=default;fontSize=18;fontColor=default;strokeColor=#0000FF;entryX=0.5;entryY=0;entryDx=0;entryDy=0;exitX=0.548;exitY=1.039;exitDx=0;exitDy=0;endFill=1;exitPerimeter=0;" parent="1" source="cHWenCPkh5nBEhxCHhPZ-43" target="cHWenCPkh5nBEhxCHhPZ-65" edge="1">
          <mxGeometry width="50" height="50" relative="1" as="geometry">
            <mxPoint x="380" y="870" as="sourcePoint" />
            <mxPoint x="520" y="990" as="targetPoint" />
            <Array as="points">
              <mxPoint x="338" y="870" />
              <mxPoint x="200" y="870" />
            </Array>
          </mxGeometry>
        </mxCell>
        <mxCell id="cHWenCPkh5nBEhxCHhPZ-71" value="" style="endArrow=block;html=1;rounded=0;labelBackgroundColor=default;fontSize=18;fontColor=default;strokeColor=#0000FF;entryX=0.625;entryY=0.1;entryDx=0;entryDy=0;entryPerimeter=0;endFill=1;" parent="1" target="cHWenCPkh5nBEhxCHhPZ-44" edge="1">
          <mxGeometry width="50" height="50" relative="1" as="geometry">
            <mxPoint x="470" y="870" as="sourcePoint" />
            <mxPoint x="520" y="990" as="targetPoint" />
            <Array as="points">
              <mxPoint x="680" y="870" />
            </Array>
          </mxGeometry>
        </mxCell>
        <mxCell id="cHWenCPkh5nBEhxCHhPZ-72" value="" style="endArrow=block;html=1;rounded=0;labelBackgroundColor=default;fontSize=18;fontColor=default;strokeColor=#0000FF;entryX=0.794;entryY=0;entryDx=0;entryDy=0;exitX=0.548;exitY=0.994;exitDx=0;exitDy=0;exitPerimeter=0;entryPerimeter=0;endFill=1;" parent="1" source="cHWenCPkh5nBEhxCHhPZ-43" target="cHWenCPkh5nBEhxCHhPZ-59" edge="1">
          <mxGeometry width="50" height="50" relative="1" as="geometry">
            <mxPoint x="890.8333333333333" y="760" as="sourcePoint" />
            <mxPoint x="520" y="990" as="targetPoint" />
            <Array as="points">
              <mxPoint x="338" y="870" />
              <mxPoint x="470" y="870" />
            </Array>
          </mxGeometry>
        </mxCell>
        <mxCell id="cHWenCPkh5nBEhxCHhPZ-73" value="" style="endArrow=block;html=1;rounded=0;labelBackgroundColor=default;fontSize=18;fontColor=default;strokeColor=#0000FF;exitX=0.5;exitY=1;exitDx=0;exitDy=0;entryX=0;entryY=0.5;entryDx=0;entryDy=0;endFill=1;" parent="1" source="cHWenCPkh5nBEhxCHhPZ-56" target="cHWenCPkh5nBEhxCHhPZ-43" edge="1">
          <mxGeometry width="50" height="50" relative="1" as="geometry">
            <mxPoint x="470" y="1040" as="sourcePoint" />
            <mxPoint x="520" y="990" as="targetPoint" />
            <Array as="points">
              <mxPoint x="310" y="1350" />
              <mxPoint x="50" y="1350" />
              <mxPoint x="50" y="800" />
            </Array>
          </mxGeometry>
        </mxCell>
        <mxCell id="cHWenCPkh5nBEhxCHhPZ-74" value="" style="endArrow=block;html=1;rounded=0;labelBackgroundColor=default;fontColor=default;exitX=0.5;exitY=1;exitDx=0;exitDy=0;strokeColor=#0000FF;entryX=0.5;entryY=0;entryDx=0;entryDy=0;endFill=1;" parent="1" source="cHWenCPkh5nBEhxCHhPZ-61" target="cHWenCPkh5nBEhxCHhPZ-56" edge="1">
          <mxGeometry width="50" height="50" relative="1" as="geometry">
            <mxPoint x="440" y="1000" as="sourcePoint" />
            <mxPoint x="490" y="950" as="targetPoint" />
            <Array as="points">
              <mxPoint x="200" y="1230" />
              <mxPoint x="310" y="1230" />
            </Array>
          </mxGeometry>
        </mxCell>
        <mxCell id="cHWenCPkh5nBEhxCHhPZ-75" value="users_id&lt;br&gt;(sessionId)" style="text;html=1;strokeColor=none;align=center;verticalAlign=middle;whiteSpace=wrap;rounded=0;fontColor=default;fillColor=#FFFFFF;" parent="1" vertex="1">
          <mxGeometry x="245" y="700" width="65" height="20" as="geometry" />
        </mxCell>
        <mxCell id="cHWenCPkh5nBEhxCHhPZ-76" value="" style="endArrow=classic;html=1;rounded=0;strokeColor=#0000FF;exitX=0;exitY=0.25;exitDx=0;exitDy=0;entryX=0.25;entryY=0;entryDx=0;entryDy=0;" parent="1" source="cHWenCPkh5nBEhxCHhPZ-20" target="cHWenCPkh5nBEhxCHhPZ-23" edge="1">
          <mxGeometry width="50" height="50" relative="1" as="geometry">
            <mxPoint x="-220" y="1055" as="sourcePoint" />
            <mxPoint x="-170" y="1005" as="targetPoint" />
            <Array as="points">
              <mxPoint x="-815" y="900" />
            </Array>
          </mxGeometry>
        </mxCell>
        <mxCell id="cHWenCPkh5nBEhxCHhPZ-77" value="" style="endArrow=classic;html=1;rounded=0;strokeColor=#0000FF;exitX=1;exitY=0.5;exitDx=0;exitDy=0;entryX=0.5;entryY=1;entryDx=0;entryDy=0;" parent="1" source="cHWenCPkh5nBEhxCHhPZ-12" target="cHWenCPkh5nBEhxCHhPZ-7" edge="1">
          <mxGeometry width="50" height="50" relative="1" as="geometry">
            <mxPoint x="730" y="250" as="sourcePoint" />
            <mxPoint x="780" y="200" as="targetPoint" />
            <Array as="points">
              <mxPoint x="235" y="460" />
            </Array>
          </mxGeometry>
        </mxCell>
        <mxCell id="cHWenCPkh5nBEhxCHhPZ-78" value="" style="endArrow=classic;html=1;rounded=0;strokeColor=#0000FF;exitX=0.5;exitY=0;exitDx=0;exitDy=0;entryX=-0.001;entryY=0.167;entryDx=0;entryDy=0;entryPerimeter=0;" parent="1" source="cHWenCPkh5nBEhxCHhPZ-7" target="cHWenCPkh5nBEhxCHhPZ-6" edge="1">
          <mxGeometry width="50" height="50" relative="1" as="geometry">
            <mxPoint x="790" y="250" as="sourcePoint" />
            <mxPoint x="840" y="200" as="targetPoint" />
            <Array as="points">
              <mxPoint x="235" y="181" />
              <mxPoint x="485" y="181" />
            </Array>
          </mxGeometry>
        </mxCell>
        <mxCell id="cHWenCPkh5nBEhxCHhPZ-79" value="users_id&lt;br&gt;users_pw" style="text;html=1;strokeColor=none;align=center;verticalAlign=middle;whiteSpace=wrap;rounded=0;fontColor=default;fillColor=#FFFFFF;" parent="1" vertex="1">
          <mxGeometry x="170" y="460" width="65" height="20" as="geometry" />
        </mxCell>
        <mxCell id="cHWenCPkh5nBEhxCHhPZ-80" value="로그아웃 실시&lt;br&gt;&lt;font style=&quot;font-size: 12px&quot;&gt;/users/logout.nogari&lt;/font&gt;" style="rounded=0;whiteSpace=wrap;html=1;fontSize=15;align=center;verticalAlign=middle;spacingLeft=0;fillColor=#ffe6cc;strokeColor=#d79b00;" parent="1" vertex="1">
          <mxGeometry x="-120" y="680" width="190" height="60" as="geometry" />
        </mxCell>
        <mxCell id="cHWenCPkh5nBEhxCHhPZ-81" value="" style="endArrow=classic;html=1;rounded=0;strokeColor=#0000FF;exitX=0.25;exitY=1;exitDx=0;exitDy=0;entryX=0.25;entryY=0;entryDx=0;entryDy=0;" parent="1" source="cHWenCPkh5nBEhxCHhPZ-19" target="cHWenCPkh5nBEhxCHhPZ-20" edge="1">
          <mxGeometry width="50" height="50" relative="1" as="geometry">
            <mxPoint x="-210" y="1030" as="sourcePoint" />
            <mxPoint x="-160" y="980" as="targetPoint" />
            <Array as="points">
              <mxPoint x="-441" y="820" />
              <mxPoint x="-465" y="820" />
            </Array>
          </mxGeometry>
        </mxCell>
        <mxCell id="cHWenCPkh5nBEhxCHhPZ-82" value="users_id" style="text;html=1;strokeColor=none;fillColor=default;align=center;verticalAlign=middle;whiteSpace=wrap;rounded=0;" parent="1" vertex="1">
          <mxGeometry x="-840" y="1025" width="60" height="20" as="geometry" />
        </mxCell>
        <mxCell id="cHWenCPkh5nBEhxCHhPZ-83" value="users_idx" style="text;html=1;strokeColor=none;fillColor=default;align=center;verticalAlign=middle;whiteSpace=wrap;rounded=0;" parent="1" vertex="1">
          <mxGeometry x="-440" y="1060" width="50" height="20" as="geometry" />
        </mxCell>
        <mxCell id="cHWenCPkh5nBEhxCHhPZ-84" value="" style="endArrow=classic;html=1;rounded=0;strokeColor=#FF0000;exitX=0.25;exitY=1;exitDx=0;exitDy=0;entryX=0.25;entryY=0;entryDx=0;entryDy=0;" parent="1" source="cHWenCPkh5nBEhxCHhPZ-30" target="cHWenCPkh5nBEhxCHhPZ-22" edge="1">
          <mxGeometry width="50" height="50" relative="1" as="geometry">
            <mxPoint x="-210" y="1030" as="sourcePoint" />
            <mxPoint x="-160" y="980" as="targetPoint" />
          </mxGeometry>
        </mxCell>
        <mxCell id="cHWenCPkh5nBEhxCHhPZ-85" value="실패 시" style="text;html=1;strokeColor=none;fillColor=none;align=center;verticalAlign=middle;whiteSpace=wrap;rounded=0;fontSize=12;fontColor=#FF0000;" parent="1" vertex="1">
          <mxGeometry x="-605" y="1045" width="50" height="15" as="geometry" />
        </mxCell>
        <mxCell id="cHWenCPkh5nBEhxCHhPZ-86" value="&lt;div style=&quot;font-size: 12px&quot;&gt;&lt;span&gt;users_pw&lt;/span&gt;&lt;br&gt;&lt;/div&gt;&lt;div style=&quot;font-size: 12px&quot;&gt;users_nick&lt;/div&gt;&lt;div style=&quot;font-size: 12px&quot;&gt;users_email&lt;/div&gt;&lt;div style=&quot;font-size: 12px&quot;&gt;users_phone&lt;/div&gt;&lt;div style=&quot;font-size: 12px&quot;&gt;users_grade&lt;/div&gt;" style="text;html=1;strokeColor=none;align=center;verticalAlign=middle;whiteSpace=wrap;rounded=0;fontSize=18;fontColor=default;fillColor=#ffffff;" parent="1" vertex="1">
          <mxGeometry x="-520" y="1035" width="70" height="70" as="geometry" />
        </mxCell>
        <mxCell id="cHWenCPkh5nBEhxCHhPZ-87" value="" style="endArrow=classic;html=1;rounded=0;fontSize=12;strokeColor=#0000FF;exitX=0.002;exitY=0.076;exitDx=0;exitDy=0;exitPerimeter=0;entryX=0.708;entryY=-0.028;entryDx=0;entryDy=0;entryPerimeter=0;" parent="1" source="cHWenCPkh5nBEhxCHhPZ-6" target="cHWenCPkh5nBEhxCHhPZ-16" edge="1">
          <mxGeometry width="50" height="50" relative="1" as="geometry">
            <mxPoint x="680" y="430" as="sourcePoint" />
            <mxPoint x="730" y="380" as="targetPoint" />
            <Array as="points">
              <mxPoint x="55" y="150" />
            </Array>
          </mxGeometry>
        </mxCell>
        <mxCell id="cHWenCPkh5nBEhxCHhPZ-88" value="" style="endArrow=classic;html=1;rounded=0;fontSize=12;strokeColor=#0000FF;exitX=0;exitY=0.5;exitDx=0;exitDy=0;entryX=0.75;entryY=0;entryDx=0;entryDy=0;" parent="1" source="cHWenCPkh5nBEhxCHhPZ-6" target="cHWenCPkh5nBEhxCHhPZ-19" edge="1">
          <mxGeometry width="50" height="50" relative="1" as="geometry">
            <mxPoint x="670" y="460" as="sourcePoint" />
            <mxPoint x="180" y="510" as="targetPoint" />
            <Array as="points">
              <mxPoint x="530" y="293" />
              <mxPoint x="530" y="460" />
              <mxPoint x="530" y="590" />
              <mxPoint x="-351" y="590" />
            </Array>
          </mxGeometry>
        </mxCell>
        <mxCell id="cHWenCPkh5nBEhxCHhPZ-89" value="users_id(sessionId)&lt;br&gt;users_grade(sessionGrade)" style="text;html=1;strokeColor=none;align=center;verticalAlign=middle;whiteSpace=wrap;rounded=0;fontColor=default;fillColor=#FFFFFF;" parent="1" vertex="1">
          <mxGeometry x="-413" y="655" width="161" height="25" as="geometry" />
        </mxCell>
        <mxCell id="cHWenCPkh5nBEhxCHhPZ-90" value="" style="endArrow=classic;html=1;rounded=0;fontSize=12;strokeColor=#000000;exitX=0.25;exitY=0;exitDx=0;exitDy=0;entryX=-0.008;entryY=0.318;entryDx=0;entryDy=0;entryPerimeter=0;" parent="1" source="cHWenCPkh5nBEhxCHhPZ-80" target="cHWenCPkh5nBEhxCHhPZ-6" edge="1">
          <mxGeometry width="50" height="50" relative="1" as="geometry">
            <mxPoint x="-150" y="560" as="sourcePoint" />
            <mxPoint x="-100" y="510" as="targetPoint" />
            <Array as="points">
              <mxPoint x="-72" y="570" />
              <mxPoint x="490" y="570" />
              <mxPoint x="490" y="230" />
            </Array>
          </mxGeometry>
        </mxCell>
        <mxCell id="cHWenCPkh5nBEhxCHhPZ-92" value="" style="endArrow=classic;html=1;rounded=0;fontSize=12;strokeColor=#0000FF;exitX=0;exitY=0.5;exitDx=0;exitDy=0;entryX=0.5;entryY=0;entryDx=0;entryDy=0;" parent="1" edge="1">
          <mxGeometry width="50" height="50" relative="1" as="geometry">
            <mxPoint x="670" y="292.5" as="sourcePoint" />
            <mxPoint x="328.1300000000001" y="770" as="targetPoint" />
            <Array as="points">
              <mxPoint x="530" y="293" />
              <mxPoint x="530" y="460" />
              <mxPoint x="530" y="590" />
              <mxPoint x="328" y="590" />
            </Array>
          </mxGeometry>
        </mxCell>
        <mxCell id="cHWenCPkh5nBEhxCHhPZ-93" value="" style="endArrow=classic;html=1;rounded=0;fontSize=12;strokeColor=#0000FF;exitX=0;exitY=0.5;exitDx=0;exitDy=0;entryX=0.75;entryY=0;entryDx=0;entryDy=0;" parent="1" edge="1">
          <mxGeometry width="50" height="50" relative="1" as="geometry">
            <mxPoint x="670" y="292.5" as="sourcePoint" />
            <mxPoint x="22.5" y="680" as="targetPoint" />
            <Array as="points">
              <mxPoint x="530" y="293" />
              <mxPoint x="530" y="460" />
              <mxPoint x="530" y="590" />
              <mxPoint x="23" y="590" />
            </Array>
          </mxGeometry>
        </mxCell>
        <mxCell id="cHWenCPkh5nBEhxCHhPZ-94" value="" style="endArrow=classic;html=1;rounded=0;fontSize=12;strokeColor=#0000FF;exitX=0;exitY=0.5;exitDx=0;exitDy=0;entryX=0.75;entryY=0;entryDx=0;entryDy=0;" parent="1" edge="1">
          <mxGeometry width="50" height="50" relative="1" as="geometry">
            <mxPoint x="670" y="292.5" as="sourcePoint" />
            <mxPoint x="-351" y="720" as="targetPoint" />
            <Array as="points">
              <mxPoint x="530" y="293" />
              <mxPoint x="530" y="460" />
              <mxPoint x="530" y="590" />
              <mxPoint x="-351" y="590" />
            </Array>
          </mxGeometry>
        </mxCell>
        <mxCell id="cHWenCPkh5nBEhxCHhPZ-95" value="" style="endArrow=classic;html=1;rounded=0;fontSize=12;strokeColor=#0000FF;exitX=1;exitY=0.5;exitDx=0;exitDy=0;" parent="1" edge="1">
          <mxGeometry width="50" height="50" relative="1" as="geometry">
            <mxPoint x="428.1300000000001" y="800" as="sourcePoint" />
            <mxPoint x="800" y="462" as="targetPoint" />
            <Array as="points">
              <mxPoint x="800" y="800" />
            </Array>
          </mxGeometry>
        </mxCell>
        <mxCell id="cHWenCPkh5nBEhxCHhPZ-96" value="" style="endArrow=classic;html=1;rounded=0;fontSize=12;strokeColor=#0000FF;exitX=0.5;exitY=1;exitDx=0;exitDy=0;entryX=0.31;entryY=1.007;entryDx=0;entryDy=0;entryPerimeter=0;" parent="1" edge="1">
          <mxGeometry width="50" height="50" relative="1" as="geometry">
            <mxPoint x="650" y="1305" as="sourcePoint" />
            <mxPoint x="800.1999999999998" y="462.34500000000025" as="targetPoint" />
            <Array as="points">
              <mxPoint x="650" y="1350" />
              <mxPoint x="800" y="1350" />
            </Array>
          </mxGeometry>
        </mxCell>
        <mxCell id="cHWenCPkh5nBEhxCHhPZ-97" value="" style="endArrow=classic;html=1;rounded=0;fontSize=12;strokeColor=#000000;exitX=0.25;exitY=0;exitDx=0;exitDy=0;entryX=-0.002;entryY=0.318;entryDx=0;entryDy=0;entryPerimeter=0;" parent="1" edge="1">
          <mxGeometry width="50" height="50" relative="1" as="geometry">
            <mxPoint x="-441" y="720" as="sourcePoint" />
            <mxPoint x="669.1599999999999" y="231.52999999999975" as="targetPoint" />
            <Array as="points">
              <mxPoint x="-440" y="570" />
              <mxPoint x="490" y="570" />
              <mxPoint x="490" y="230" />
            </Array>
          </mxGeometry>
        </mxCell>
        <mxCell id="cHWenCPkh5nBEhxCHhPZ-98" value="이벤트" style="rounded=0;whiteSpace=wrap;html=1;fontSize=30;align=left;verticalAlign=top;strokeWidth=7;strokeColor=#D6B656;fillColor=#FFFBCB;fontColor=#806C33;spacingTop=7;" parent="1" vertex="1">
          <mxGeometry x="1030" y="-1260" width="790" height="600" as="geometry" />
        </mxCell>
        <mxCell id="cHWenCPkh5nBEhxCHhPZ-99" value="&amp;nbsp; &amp;nbsp; &amp;nbsp; &amp;nbsp; &amp;nbsp; &amp;nbsp; &amp;nbsp; &amp;nbsp; &amp;nbsp; &amp;nbsp; &amp;nbsp; &amp;nbsp; &amp;nbsp; &amp;nbsp; &amp;nbsp; &amp;nbsp; &amp;nbsp; &amp;nbsp; &amp;nbsp; &amp;nbsp; &amp;nbsp; &amp;nbsp; &amp;nbsp; &amp;nbsp; &amp;nbsp; &amp;nbsp; &amp;nbsp; &amp;nbsp; &amp;nbsp; &amp;nbsp; &amp;nbsp; &amp;nbsp; &amp;nbsp; &amp;nbsp; &amp;nbsp; &amp;nbsp; &amp;nbsp; &amp;nbsp; &amp;nbsp; &amp;nbsp;관광지" style="rounded=0;whiteSpace=wrap;html=1;fontSize=30;align=left;verticalAlign=top;strokeWidth=7;strokeColor=#D6B656;fillColor=#FFFBCB;fontColor=#806C33;spacingTop=7;" parent="1" vertex="1">
          <mxGeometry x="1030" y="-650" width="790" height="640" as="geometry" />
        </mxCell>
        <mxCell id="k6I8Gd16gWBJy7uJMTZF-9" style="edgeStyle=orthogonalEdgeStyle;rounded=0;orthogonalLoop=1;jettySize=auto;html=1;exitX=1;exitY=0.75;exitDx=0;exitDy=0;entryX=0;entryY=0.75;entryDx=0;entryDy=0;strokeColor=#000000;" parent="1" source="cHWenCPkh5nBEhxCHhPZ-100" target="cHWenCPkh5nBEhxCHhPZ-118" edge="1">
          <mxGeometry relative="1" as="geometry">
            <Array as="points" />
          </mxGeometry>
        </mxCell>
        <mxCell id="k6I8Gd16gWBJy7uJMTZF-17" style="edgeStyle=orthogonalEdgeStyle;rounded=0;orthogonalLoop=1;jettySize=auto;html=1;exitX=1;exitY=0.5;exitDx=0;exitDy=0;entryX=0;entryY=0.75;entryDx=0;entryDy=0;strokeColor=#000000;" parent="1" source="cHWenCPkh5nBEhxCHhPZ-100" target="cHWenCPkh5nBEhxCHhPZ-117" edge="1">
          <mxGeometry relative="1" as="geometry" />
        </mxCell>
        <mxCell id="HJ5aTW5SzzA_CiA0n5Hh-9" value="item_idx&lt;br&gt;item_reply_deitai&lt;br&gt;(답글)&lt;br&gt;item_relpy_idx" style="edgeStyle=orthogonalEdgeStyle;rounded=0;orthogonalLoop=1;jettySize=auto;html=1;exitX=0.5;exitY=1;exitDx=0;exitDy=0;" parent="1" source="cHWenCPkh5nBEhxCHhPZ-100" target="HJ5aTW5SzzA_CiA0n5Hh-1" edge="1">
          <mxGeometry x="0.3846" relative="1" as="geometry">
            <Array as="points">
              <mxPoint x="1180" y="60" />
              <mxPoint x="1180" y="60" />
            </Array>
            <mxPoint as="offset" />
          </mxGeometry>
        </mxCell>
        <mxCell id="HJ5aTW5SzzA_CiA0n5Hh-10" value="iitem_idx&lt;br&gt;item_reply_idx" style="edgeStyle=orthogonalEdgeStyle;rounded=0;orthogonalLoop=1;jettySize=auto;html=1;" parent="1" source="cHWenCPkh5nBEhxCHhPZ-100" target="HJ5aTW5SzzA_CiA0n5Hh-4" edge="1">
          <mxGeometry x="0.8276" relative="1" as="geometry">
            <Array as="points">
              <mxPoint x="1180" y="30" />
              <mxPoint x="1500" y="30" />
            </Array>
            <mxPoint as="offset" />
          </mxGeometry>
        </mxCell>
        <mxCell id="HJ5aTW5SzzA_CiA0n5Hh-11" value="itemi_idx&lt;br&gt;item_reply_idx&lt;br&gt;item_reply_detail" style="edgeStyle=orthogonalEdgeStyle;rounded=0;orthogonalLoop=1;jettySize=auto;html=1;entryX=0.544;entryY=-0.05;entryDx=0;entryDy=0;entryPerimeter=0;" parent="1" source="cHWenCPkh5nBEhxCHhPZ-100" target="HJ5aTW5SzzA_CiA0n5Hh-5" edge="1">
          <mxGeometry x="0.8817" relative="1" as="geometry">
            <Array as="points">
              <mxPoint x="1180" y="30" />
              <mxPoint x="1718" y="30" />
            </Array>
            <mxPoint as="offset" />
          </mxGeometry>
        </mxCell>
        <mxCell id="cHWenCPkh5nBEhxCHhPZ-100" value="&lt;font&gt;관광지 게시글 상세&lt;br&gt;&lt;font style=&quot;font-size: 12px&quot;&gt;(댓글 목록, 작성, 수정, 삭제)&lt;/font&gt;&lt;br&gt;&lt;/font&gt;&lt;span style=&quot;font-size: 12px&quot;&gt;item/detail.jsp&lt;/span&gt;" style="rounded=0;whiteSpace=wrap;html=1;fontSize=15;align=center;verticalAlign=middle;spacingLeft=0;fillColor=#f5f5f5;fontColor=#333333;strokeColor=#666666;" parent="1" vertex="1">
          <mxGeometry x="1090" y="-160" width="180" height="60" as="geometry" />
        </mxCell>
        <mxCell id="cHWenCPkh5nBEhxCHhPZ-101" value="&lt;font style=&quot;font-size: 15px&quot;&gt;관광지 게시판 목록&lt;br&gt;&lt;/font&gt;&lt;span style=&quot;font-size: 12px&quot;&gt;/item/list.jsp&lt;/span&gt;" style="rounded=0;whiteSpace=wrap;html=1;fontSize=15;align=center;verticalAlign=middle;spacingLeft=0;fillColor=#f5f5f5;fontColor=#333333;strokeColor=#666666;" parent="1" vertex="1">
          <mxGeometry x="1090" y="-380" width="180" height="60" as="geometry" />
        </mxCell>
        <mxCell id="cHWenCPkh5nBEhxCHhPZ-102" value="&lt;font style=&quot;font-size: 15px&quot;&gt;이벤트 등록(작성)&lt;br&gt;&lt;/font&gt;&lt;span style=&quot;font-size: 12px&quot;&gt;/admin/event/write.jsp&lt;/span&gt;" style="rounded=0;whiteSpace=wrap;html=1;fontSize=15;align=center;verticalAlign=middle;spacingLeft=0;fillColor=#f5f5f5;fontColor=#333333;strokeColor=#666666;" parent="1" vertex="1">
          <mxGeometry x="1090" y="-780" width="180" height="60" as="geometry" />
        </mxCell>
        <mxCell id="cHWenCPkh5nBEhxCHhPZ-103" value="&lt;font style=&quot;font-size: 15px&quot;&gt;이벤트 게시판 목록&lt;br&gt;&lt;/font&gt;&lt;span style=&quot;font-size: 12px&quot;&gt;event/list.jsp&lt;/span&gt;" style="rounded=0;whiteSpace=wrap;html=1;fontSize=15;align=center;verticalAlign=middle;spacingLeft=0;fillColor=#f5f5f5;fontColor=#333333;strokeColor=#666666;" parent="1" vertex="1">
          <mxGeometry x="1090" y="-900" width="180" height="60" as="geometry" />
        </mxCell>
        <mxCell id="cHWenCPkh5nBEhxCHhPZ-104" value="&lt;font style=&quot;font-size: 15px&quot;&gt;이벤트 게시글 상세&lt;br&gt;&lt;/font&gt;&lt;span style=&quot;font-size: 12px&quot;&gt;event/detatil.jsp&lt;/span&gt;" style="rounded=0;whiteSpace=wrap;html=1;fontSize=15;align=center;verticalAlign=middle;spacingLeft=0;fillColor=#f5f5f5;fontColor=#333333;strokeColor=#666666;" parent="1" vertex="1">
          <mxGeometry x="1090" y="-1020" width="180" height="60" as="geometry" />
        </mxCell>
        <mxCell id="k6I8Gd16gWBJy7uJMTZF-30" style="edgeStyle=orthogonalEdgeStyle;rounded=0;orthogonalLoop=1;jettySize=auto;html=1;exitX=0;exitY=0.75;exitDx=0;exitDy=0;entryX=0;entryY=0.5;entryDx=0;entryDy=0;fontSize=12;fontColor=#0000FF;strokeColor=#0000FF;" parent="1" source="cHWenCPkh5nBEhxCHhPZ-105" target="cHWenCPkh5nBEhxCHhPZ-100" edge="1">
          <mxGeometry relative="1" as="geometry" />
        </mxCell>
        <mxCell id="cHWenCPkh5nBEhxCHhPZ-105" value="&lt;font style=&quot;font-size: 15px&quot;&gt;관광지등록&lt;br&gt;&lt;/font&gt;&lt;span style=&quot;font-size: 12px&quot;&gt;item/insert.jsp&lt;/span&gt;" style="rounded=0;whiteSpace=wrap;html=1;fontSize=15;align=center;verticalAlign=middle;spacingLeft=0;fillColor=#f5f5f5;fontColor=#333333;strokeColor=#666666;" parent="1" vertex="1">
          <mxGeometry x="1090" y="-630" width="180" height="60" as="geometry" />
        </mxCell>
        <mxCell id="cHWenCPkh5nBEhxCHhPZ-106" value="" style="endArrow=classic;html=1;rounded=0;exitX=0.25;exitY=0;exitDx=0;exitDy=0;entryX=0.25;entryY=1;entryDx=0;entryDy=0;" parent="1" source="cHWenCPkh5nBEhxCHhPZ-103" target="cHWenCPkh5nBEhxCHhPZ-104" edge="1">
          <mxGeometry width="50" height="50" relative="1" as="geometry">
            <mxPoint x="670" y="-750" as="sourcePoint" />
            <mxPoint x="720" y="-800" as="targetPoint" />
          </mxGeometry>
        </mxCell>
        <mxCell id="cHWenCPkh5nBEhxCHhPZ-107" value="" style="endArrow=classic;html=1;rounded=0;exitX=0.75;exitY=1;exitDx=0;exitDy=0;entryX=0.75;entryY=0;entryDx=0;entryDy=0;" parent="1" source="cHWenCPkh5nBEhxCHhPZ-104" target="cHWenCPkh5nBEhxCHhPZ-103" edge="1">
          <mxGeometry width="50" height="50" relative="1" as="geometry">
            <mxPoint x="1145" y="-890" as="sourcePoint" />
            <mxPoint x="1145" y="-930" as="targetPoint" />
          </mxGeometry>
        </mxCell>
        <mxCell id="cHWenCPkh5nBEhxCHhPZ-108" value="" style="endArrow=classic;html=1;rounded=0;exitX=0.25;exitY=1;exitDx=0;exitDy=0;entryX=0.25;entryY=0;entryDx=0;entryDy=0;" parent="1" source="cHWenCPkh5nBEhxCHhPZ-103" target="cHWenCPkh5nBEhxCHhPZ-102" edge="1">
          <mxGeometry width="50" height="50" relative="1" as="geometry">
            <mxPoint x="1145" y="-890" as="sourcePoint" />
            <mxPoint x="1145" y="-930" as="targetPoint" />
          </mxGeometry>
        </mxCell>
        <mxCell id="cHWenCPkh5nBEhxCHhPZ-109" value="users_grade" style="text;html=1;strokeColor=none;align=center;verticalAlign=middle;whiteSpace=wrap;rounded=0;fillColor=#FFFFFF;" parent="1" vertex="1">
          <mxGeometry x="1080" y="-820" width="80" height="10" as="geometry" />
        </mxCell>
        <mxCell id="cHWenCPkh5nBEhxCHhPZ-111" value="" style="endArrow=classic;html=1;rounded=0;exitX=0.75;exitY=0;exitDx=0;exitDy=0;entryX=0.75;entryY=1;entryDx=0;entryDy=0;" parent="1" source="cHWenCPkh5nBEhxCHhPZ-102" target="cHWenCPkh5nBEhxCHhPZ-103" edge="1">
          <mxGeometry width="50" height="50" relative="1" as="geometry">
            <mxPoint x="1235" y="-950" as="sourcePoint" />
            <mxPoint x="1235" y="-890" as="targetPoint" />
          </mxGeometry>
        </mxCell>
        <mxCell id="cHWenCPkh5nBEhxCHhPZ-112" value="" style="endArrow=classic;html=1;rounded=0;exitX=0.75;exitY=0;exitDx=0;exitDy=0;entryX=0.75;entryY=1;entryDx=0;entryDy=0;fillColor=#f8cecc;strokeColor=#000000;" parent="1" source="cHWenCPkh5nBEhxCHhPZ-101" target="cHWenCPkh5nBEhxCHhPZ-105" edge="1">
          <mxGeometry width="50" height="50" relative="1" as="geometry">
            <mxPoint x="1235" y="-770" as="sourcePoint" />
            <mxPoint x="1225" y="-520" as="targetPoint" />
          </mxGeometry>
        </mxCell>
        <mxCell id="cHWenCPkh5nBEhxCHhPZ-113" value="" style="endArrow=classic;html=1;rounded=0;exitX=0.25;exitY=1;exitDx=0;exitDy=0;entryX=0.25;entryY=0;entryDx=0;entryDy=0;" parent="1" source="cHWenCPkh5nBEhxCHhPZ-101" target="cHWenCPkh5nBEhxCHhPZ-100" edge="1">
          <mxGeometry width="50" height="50" relative="1" as="geometry">
            <mxPoint x="1145" y="-500" as="sourcePoint" />
            <mxPoint x="1145" y="-440" as="targetPoint" />
          </mxGeometry>
        </mxCell>
        <mxCell id="cHWenCPkh5nBEhxCHhPZ-114" value="" style="endArrow=classic;html=1;rounded=0;exitX=0.75;exitY=0;exitDx=0;exitDy=0;entryX=0.75;entryY=1;entryDx=0;entryDy=0;" parent="1" source="cHWenCPkh5nBEhxCHhPZ-100" target="cHWenCPkh5nBEhxCHhPZ-101" edge="1">
          <mxGeometry width="50" height="50" relative="1" as="geometry">
            <mxPoint x="1235" y="-440" as="sourcePoint" />
            <mxPoint x="1235" y="-500" as="targetPoint" />
          </mxGeometry>
        </mxCell>
        <mxCell id="cHWenCPkh5nBEhxCHhPZ-115" value="event_idx" style="text;html=1;strokeColor=none;align=center;verticalAlign=middle;whiteSpace=wrap;rounded=0;fillColor=#FFFFFF;" parent="1" vertex="1">
          <mxGeometry x="1090" y="-940" width="70" height="10" as="geometry" />
        </mxCell>
        <mxCell id="cHWenCPkh5nBEhxCHhPZ-116" value="item_idx" style="text;html=1;strokeColor=none;align=center;verticalAlign=middle;whiteSpace=wrap;rounded=0;fillColor=#FFFFFF;" parent="1" vertex="1">
          <mxGeometry x="1103" y="-250" width="60" height="20" as="geometry" />
        </mxCell>
        <mxCell id="k6I8Gd16gWBJy7uJMTZF-12" style="edgeStyle=orthogonalEdgeStyle;rounded=0;orthogonalLoop=1;jettySize=auto;html=1;exitX=0.5;exitY=0;exitDx=0;exitDy=0;entryX=0.5;entryY=1;entryDx=0;entryDy=0;strokeColor=#000000;startArrow=none;" parent="1" source="cHWenCPkh5nBEhxCHhPZ-123" target="cHWenCPkh5nBEhxCHhPZ-121" edge="1">
          <mxGeometry relative="1" as="geometry" />
        </mxCell>
        <mxCell id="cHWenCPkh5nBEhxCHhPZ-117" value="&lt;font style=&quot;font-size: 15px&quot;&gt;관광지 게시글 수정&lt;br&gt;&lt;/font&gt;&lt;span style=&quot;font-size: 12px&quot;&gt;item/edit.jsp&lt;/span&gt;" style="rounded=0;whiteSpace=wrap;html=1;fontSize=15;align=center;verticalAlign=middle;spacingLeft=0;fillColor=#f5f5f5;fontColor=#333333;strokeColor=#666666;" parent="1" vertex="1">
          <mxGeometry x="1540" y="-240" width="180" height="60" as="geometry" />
        </mxCell>
        <mxCell id="k6I8Gd16gWBJy7uJMTZF-25" style="edgeStyle=orthogonalEdgeStyle;rounded=0;orthogonalLoop=1;jettySize=auto;html=1;exitX=0.5;exitY=1;exitDx=0;exitDy=0;entryX=0;entryY=0.75;entryDx=0;entryDy=0;fontColor=#FF0000;strokeColor=#0000FF;startArrow=none;" parent="1" source="upsEj7CZA0ea6hPrhuI7-4" target="cHWenCPkh5nBEhxCHhPZ-101" edge="1">
          <mxGeometry relative="1" as="geometry">
            <Array as="points">
              <mxPoint x="1070" y="-60" />
              <mxPoint x="1070" y="-335" />
            </Array>
            <mxPoint x="1511" y="-45" as="sourcePoint" />
          </mxGeometry>
        </mxCell>
        <mxCell id="cHWenCPkh5nBEhxCHhPZ-118" value="관광지 게시글 삭제 처리&lt;br&gt;&lt;font style=&quot;font-size: 12px&quot;&gt;item/delete.nagari&lt;/font&gt;" style="rounded=0;whiteSpace=wrap;html=1;fontSize=15;align=center;verticalAlign=middle;spacingLeft=0;fillColor=#ffe6cc;strokeColor=#d79b00;" parent="1" vertex="1">
          <mxGeometry x="1540" y="-160" width="180" height="60" as="geometry" />
        </mxCell>
        <mxCell id="k6I8Gd16gWBJy7uJMTZF-11" style="edgeStyle=orthogonalEdgeStyle;rounded=0;orthogonalLoop=1;jettySize=auto;html=1;exitX=0;exitY=0.5;exitDx=0;exitDy=0;entryX=1;entryY=0.25;entryDx=0;entryDy=0;strokeColor=#0000FF;" parent="1" source="cHWenCPkh5nBEhxCHhPZ-121" target="cHWenCPkh5nBEhxCHhPZ-100" edge="1">
          <mxGeometry relative="1" as="geometry">
            <Array as="points">
              <mxPoint x="1390" y="-470" />
              <mxPoint x="1390" y="-145" />
            </Array>
          </mxGeometry>
        </mxCell>
        <mxCell id="cHWenCPkh5nBEhxCHhPZ-121" value="관광지 게시글 수정 처리&lt;br&gt;&lt;font style=&quot;font-size: 12px&quot;&gt;item/edit.nagari&lt;/font&gt;" style="rounded=0;whiteSpace=wrap;html=1;fontSize=15;align=center;verticalAlign=middle;spacingLeft=0;fillColor=#ffe6cc;strokeColor=#d79b00;" parent="1" vertex="1">
          <mxGeometry x="1540" y="-500" width="180" height="60" as="geometry" />
        </mxCell>
        <mxCell id="cHWenCPkh5nBEhxCHhPZ-127" value="item_idx&lt;br&gt;users_grade&lt;br&gt;&lt;span style=&quot;color: rgb(255 , 0 , 0)&quot;&gt;(관리자 Only)&lt;/span&gt;" style="text;html=1;strokeColor=none;align=center;verticalAlign=middle;whiteSpace=wrap;rounded=0;fontColor=default;fillColor=#FFFFFF;" parent="1" vertex="1">
          <mxGeometry x="1426" y="-139" width="80" height="45" as="geometry" />
        </mxCell>
        <mxCell id="cHWenCPkh5nBEhxCHhPZ-129" value="&lt;font style=&quot;font-size: 15px&quot;&gt;이벤트 게시글 수정&lt;br&gt;&lt;/font&gt;&lt;span style=&quot;font-size: 12px&quot;&gt;event/edit.jsp&lt;/span&gt;" style="rounded=0;whiteSpace=wrap;html=1;fontSize=15;align=center;verticalAlign=middle;spacingLeft=0;fillColor=#f5f5f5;fontColor=#333333;strokeColor=#666666;" parent="1" vertex="1">
          <mxGeometry x="1520" y="-1080" width="180" height="60" as="geometry" />
        </mxCell>
        <mxCell id="cHWenCPkh5nBEhxCHhPZ-130" value="이벤트 게시글 수정 처리&lt;br&gt;&lt;font style=&quot;font-size: 12px&quot;&gt;event/edit.nagari&lt;/font&gt;" style="rounded=0;whiteSpace=wrap;html=1;fontSize=15;align=center;verticalAlign=middle;spacingLeft=0;fillColor=#ffe6cc;strokeColor=#d79b00;" parent="1" vertex="1">
          <mxGeometry x="1520" y="-1200" width="180" height="60" as="geometry" />
        </mxCell>
        <mxCell id="cHWenCPkh5nBEhxCHhPZ-131" value="이벤트 게시글 삭제 처리&lt;br&gt;&lt;font style=&quot;font-size: 12px&quot;&gt;event/delete.nagari&lt;/font&gt;" style="rounded=0;whiteSpace=wrap;html=1;fontSize=15;align=center;verticalAlign=middle;spacingLeft=0;fillColor=#ffe6cc;strokeColor=#d79b00;" parent="1" vertex="1">
          <mxGeometry x="1520" y="-950" width="180" height="60" as="geometry" />
        </mxCell>
        <mxCell id="cHWenCPkh5nBEhxCHhPZ-132" value="" style="endArrow=classic;html=1;rounded=0;fontSize=12;strokeColor=#009900;exitX=1;exitY=0.25;exitDx=0;exitDy=0;entryX=0;entryY=0.5;entryDx=0;entryDy=0;" parent="1" source="cHWenCPkh5nBEhxCHhPZ-104" target="cHWenCPkh5nBEhxCHhPZ-129" edge="1">
          <mxGeometry width="50" height="50" relative="1" as="geometry">
            <mxPoint x="1330" y="-720" as="sourcePoint" />
            <mxPoint x="1380" y="-770" as="targetPoint" />
            <Array as="points">
              <mxPoint x="1410" y="-1005" />
              <mxPoint x="1410" y="-1050" />
            </Array>
          </mxGeometry>
        </mxCell>
        <mxCell id="cHWenCPkh5nBEhxCHhPZ-133" value="" style="endArrow=classic;html=1;rounded=0;fontSize=12;strokeColor=#009900;exitX=1;exitY=0.25;exitDx=0;exitDy=0;entryX=0;entryY=0.25;entryDx=0;entryDy=0;" parent="1" source="cHWenCPkh5nBEhxCHhPZ-104" target="cHWenCPkh5nBEhxCHhPZ-131" edge="1">
          <mxGeometry width="50" height="50" relative="1" as="geometry">
            <mxPoint x="1330" y="-720" as="sourcePoint" />
            <mxPoint x="1380" y="-770" as="targetPoint" />
            <Array as="points">
              <mxPoint x="1410" y="-1005" />
              <mxPoint x="1410" y="-935" />
            </Array>
          </mxGeometry>
        </mxCell>
        <mxCell id="cHWenCPkh5nBEhxCHhPZ-134" value="event_idx&lt;br&gt;users_grade" style="text;html=1;strokeColor=none;align=center;verticalAlign=middle;whiteSpace=wrap;rounded=0;fontColor=default;fillColor=#FFFFFF;" parent="1" vertex="1">
          <mxGeometry x="1340" y="-1030" width="80" height="40" as="geometry" />
        </mxCell>
        <mxCell id="cHWenCPkh5nBEhxCHhPZ-135" value="" style="endArrow=classic;html=1;rounded=0;fontSize=12;strokeColor=#009900;exitX=0.5;exitY=0;exitDx=0;exitDy=0;entryX=0.5;entryY=1;entryDx=0;entryDy=0;" parent="1" source="cHWenCPkh5nBEhxCHhPZ-129" target="cHWenCPkh5nBEhxCHhPZ-130" edge="1">
          <mxGeometry width="50" height="50" relative="1" as="geometry">
            <mxPoint x="1330" y="-800" as="sourcePoint" />
            <mxPoint x="1380" y="-850" as="targetPoint" />
          </mxGeometry>
        </mxCell>
        <mxCell id="cHWenCPkh5nBEhxCHhPZ-136" value="" style="endArrow=classic;html=1;rounded=0;fontSize=12;strokeColor=#009900;exitX=0;exitY=0.5;exitDx=0;exitDy=0;entryX=0.5;entryY=0;entryDx=0;entryDy=0;" parent="1" source="cHWenCPkh5nBEhxCHhPZ-130" target="cHWenCPkh5nBEhxCHhPZ-104" edge="1">
          <mxGeometry width="50" height="50" relative="1" as="geometry">
            <mxPoint x="1330" y="-800" as="sourcePoint" />
            <mxPoint x="1380" y="-850" as="targetPoint" />
            <Array as="points">
              <mxPoint x="1180" y="-1170" />
            </Array>
          </mxGeometry>
        </mxCell>
        <mxCell id="cHWenCPkh5nBEhxCHhPZ-137" value="" style="endArrow=classic;html=1;rounded=0;fontSize=12;strokeColor=#009900;exitX=0;exitY=0.75;exitDx=0;exitDy=0;entryX=1;entryY=0.75;entryDx=0;entryDy=0;" parent="1" source="cHWenCPkh5nBEhxCHhPZ-131" target="cHWenCPkh5nBEhxCHhPZ-104" edge="1">
          <mxGeometry width="50" height="50" relative="1" as="geometry">
            <mxPoint x="1330" y="-800" as="sourcePoint" />
            <mxPoint x="1380" y="-850" as="targetPoint" />
            <Array as="points">
              <mxPoint x="1360" y="-905" />
              <mxPoint x="1360" y="-975" />
            </Array>
          </mxGeometry>
        </mxCell>
        <mxCell id="cHWenCPkh5nBEhxCHhPZ-138" value="event_idx" style="text;html=1;strokeColor=none;align=center;verticalAlign=middle;whiteSpace=wrap;rounded=0;fillColor=#FFFFFF;" parent="1" vertex="1">
          <mxGeometry x="1300" y="-1190" width="80" height="20" as="geometry" />
        </mxCell>
        <mxCell id="cHWenCPkh5nBEhxCHhPZ-140" value="" style="endArrow=classic;html=1;rounded=0;fontSize=12;strokeColor=#009900;exitX=1;exitY=0.5;exitDx=0;exitDy=0;entryX=1;entryY=0.75;entryDx=0;entryDy=0;" parent="1" source="cHWenCPkh5nBEhxCHhPZ-102" target="cHWenCPkh5nBEhxCHhPZ-104" edge="1">
          <mxGeometry width="50" height="50" relative="1" as="geometry">
            <mxPoint x="1330" y="-800" as="sourcePoint" />
            <mxPoint x="1380" y="-850" as="targetPoint" />
            <Array as="points">
              <mxPoint x="1360" y="-750" />
              <mxPoint x="1360" y="-975" />
            </Array>
          </mxGeometry>
        </mxCell>
        <mxCell id="cHWenCPkh5nBEhxCHhPZ-141" value="event_idx" style="text;html=1;strokeColor=none;align=center;verticalAlign=middle;whiteSpace=wrap;rounded=0;fontColor=default;fillColor=#FFFFFF;" parent="1" vertex="1">
          <mxGeometry x="1340" y="-920" width="60" height="20" as="geometry" />
        </mxCell>
        <mxCell id="cHWenCPkh5nBEhxCHhPZ-142" value="item_idx" style="text;html=1;strokeColor=none;align=center;verticalAlign=middle;whiteSpace=wrap;rounded=0;fontColor=default;fillColor=#FFFFFF;" parent="1" vertex="1">
          <mxGeometry x="1039" y="-500" width="80" height="20" as="geometry" />
        </mxCell>
        <mxCell id="cHWenCPkh5nBEhxCHhPZ-143" value="users_Idx&lt;br&gt;&lt;font color=&quot;#ff0000&quot;&gt;(관리자 Only)&lt;/font&gt;&lt;br&gt;itemType&lt;br&gt;itemName&lt;br&gt;itemDetail&lt;br&gt;itemPeriod&lt;br&gt;itemTime&lt;br&gt;itemHomepage&lt;br&gt;itemParking&lt;br&gt;itemAddress&lt;br&gt;&lt;font color=&quot;#3333ff&quot;&gt;attach(사진)&lt;/font&gt;" style="text;html=1;strokeColor=none;align=center;verticalAlign=middle;whiteSpace=wrap;rounded=0;fillColor=#FFFFFF;" parent="1" vertex="1">
          <mxGeometry x="1180" y="-540" width="90" height="150" as="geometry" />
        </mxCell>
        <mxCell id="cHWenCPkh5nBEhxCHhPZ-144" style="edgeStyle=orthogonalEdgeStyle;rounded=0;orthogonalLoop=1;jettySize=auto;html=1;exitX=0.5;exitY=1;exitDx=0;exitDy=0;labelBackgroundColor=default;fontSize=18;fontColor=default;" parent="1" source="cHWenCPkh5nBEhxCHhPZ-142" target="cHWenCPkh5nBEhxCHhPZ-142" edge="1">
          <mxGeometry relative="1" as="geometry" />
        </mxCell>
        <mxCell id="cHWenCPkh5nBEhxCHhPZ-145" value="" style="endArrow=classic;html=1;rounded=0;strokeColor=#0000FF;entryX=0;entryY=0.5;entryDx=0;entryDy=0;exitX=0.5;exitY=0;exitDx=0;exitDy=0;" parent="1" target="cHWenCPkh5nBEhxCHhPZ-103" edge="1">
          <mxGeometry width="50" height="50" relative="1" as="geometry">
            <mxPoint x="880" y="125" as="sourcePoint" />
            <mxPoint x="1500" y="-610" as="targetPoint" />
            <Array as="points">
              <mxPoint x="883" y="-870" />
            </Array>
          </mxGeometry>
        </mxCell>
        <mxCell id="cHWenCPkh5nBEhxCHhPZ-146" value="" style="endArrow=classic;html=1;rounded=0;strokeColor=#0000FF;exitX=0.5;exitY=0;exitDx=0;exitDy=0;entryX=0;entryY=0.5;entryDx=0;entryDy=0;" parent="1" target="cHWenCPkh5nBEhxCHhPZ-101" edge="1">
          <mxGeometry width="50" height="50" relative="1" as="geometry">
            <mxPoint x="880" y="125" as="sourcePoint" />
            <mxPoint x="1500" y="-210" as="targetPoint" />
            <Array as="points">
              <mxPoint x="883" y="-350" />
            </Array>
          </mxGeometry>
        </mxCell>
        <mxCell id="cHWenCPkh5nBEhxCHhPZ-147" value="&amp;nbsp; 이벤트" style="rounded=0;whiteSpace=wrap;html=1;fontSize=30;align=left;verticalAlign=top;strokeWidth=7;strokeColor=#D6B656;fillColor=#FFFBCB;fontColor=#806C33;spacingTop=7;" parent="1" vertex="1">
          <mxGeometry x="1840" y="480" width="460" height="525" as="geometry" />
        </mxCell>
        <mxCell id="cHWenCPkh5nBEhxCHhPZ-148" value="&amp;nbsp; 코스공유" style="rounded=0;whiteSpace=wrap;html=1;fontSize=30;align=left;verticalAlign=top;strokeWidth=7;strokeColor=#D6B656;fillColor=#FFFBCB;fontColor=#806C33;spacingTop=7;" parent="1" vertex="1">
          <mxGeometry x="1890" y="550" width="460" height="440" as="geometry" />
        </mxCell>
        <mxCell id="cHWenCPkh5nBEhxCHhPZ-149" value="&amp;nbsp; 관광지" style="rounded=0;whiteSpace=wrap;html=1;fontSize=30;align=left;verticalAlign=top;strokeWidth=7;strokeColor=#D6B656;" parent="1" vertex="1">
          <mxGeometry x="1950" y="610" width="460" height="440" as="geometry" />
        </mxCell>
        <mxCell id="cHWenCPkh5nBEhxCHhPZ-150" value="&amp;nbsp; 관광지" style="rounded=0;whiteSpace=wrap;html=1;fontSize=30;align=left;verticalAlign=top;strokeWidth=7;strokeColor=#D6B656;fillColor=#FFFBCB;fontColor=#806C33;spacingTop=7;" parent="1" vertex="1">
          <mxGeometry x="1950" y="610" width="460" height="440" as="geometry" />
        </mxCell>
        <mxCell id="cHWenCPkh5nBEhxCHhPZ-151" value="등록(글등록)" style="rounded=0;whiteSpace=wrap;html=1;fontSize=15;align=left;verticalAlign=top;spacingLeft=7;" parent="1" vertex="1">
          <mxGeometry x="1975" y="680" width="120" height="60" as="geometry" />
        </mxCell>
        <mxCell id="cHWenCPkh5nBEhxCHhPZ-152" value="수정&lt;font style=&quot;font-size: 11px&quot;&gt;(제목/내용수정)&lt;/font&gt;" style="rounded=0;whiteSpace=wrap;html=1;fontSize=15;align=left;verticalAlign=top;spacingLeft=7;" parent="1" vertex="1">
          <mxGeometry x="1985" y="840" width="120" height="60" as="geometry" />
        </mxCell>
        <mxCell id="cHWenCPkh5nBEhxCHhPZ-153" value="목록&lt;font style=&quot;font-size: 12px&quot;&gt;(글목록+검색)&lt;/font&gt;" style="rounded=0;whiteSpace=wrap;html=1;fontSize=15;align=left;verticalAlign=top;spacingLeft=7;" parent="1" vertex="1">
          <mxGeometry x="1975" y="760" width="120" height="60" as="geometry" />
        </mxCell>
        <mxCell id="cHWenCPkh5nBEhxCHhPZ-154" value="삭제(글삭제)" style="rounded=0;whiteSpace=wrap;html=1;fontSize=15;align=left;verticalAlign=top;spacingLeft=7;" parent="1" vertex="1">
          <mxGeometry x="1985" y="920" width="120" height="60" as="geometry" />
        </mxCell>
        <mxCell id="cHWenCPkh5nBEhxCHhPZ-155" value="상세(글보기)" style="rounded=0;whiteSpace=wrap;html=1;fontSize=15;align=left;verticalAlign=top;spacingLeft=7;" parent="1" vertex="1">
          <mxGeometry x="2125" y="760" width="120" height="60" as="geometry" />
        </mxCell>
        <mxCell id="cHWenCPkh5nBEhxCHhPZ-156" value="댓글" style="rounded=0;whiteSpace=wrap;html=1;fontSize=15;align=left;verticalAlign=top;spacingLeft=7;" parent="1" vertex="1">
          <mxGeometry x="2135" y="840" width="120" height="60" as="geometry" />
        </mxCell>
        <mxCell id="cHWenCPkh5nBEhxCHhPZ-157" value="&amp;nbsp; 격리공간 (미구현)" style="rounded=0;whiteSpace=wrap;html=1;fontSize=30;align=left;verticalAlign=top;strokeWidth=7;strokeColor=#D6B656;fillColor=#FFFBCB;fontColor=#806C33;spacingTop=7;" parent="1" vertex="1">
          <mxGeometry x="2540" y="1190" width="690" height="590" as="geometry" />
        </mxCell>
        <mxCell id="cHWenCPkh5nBEhxCHhPZ-158" value="비번 초기화하기" style="rounded=0;whiteSpace=wrap;html=1;fontSize=15;align=left;verticalAlign=top;spacingLeft=7;fillColor=#fff2cc;strokeColor=#d6b656;fontColor=#FF6666;" parent="1" vertex="1">
          <mxGeometry x="2610" y="1320" width="240" height="370" as="geometry" />
        </mxCell>
        <mxCell id="cHWenCPkh5nBEhxCHhPZ-159" value="" style="edgeStyle=orthogonalEdgeStyle;rounded=0;orthogonalLoop=1;jettySize=auto;html=1;endArrow=block;endFill=1;strokeColor=#0000FF;" parent="1" source="cHWenCPkh5nBEhxCHhPZ-161" target="cHWenCPkh5nBEhxCHhPZ-162" edge="1">
          <mxGeometry relative="1" as="geometry" />
        </mxCell>
        <mxCell id="cHWenCPkh5nBEhxCHhPZ-160" value="" style="edgeStyle=orthogonalEdgeStyle;rounded=0;orthogonalLoop=1;jettySize=auto;html=1;endArrow=block;endFill=1;strokeColor=#FF0000;" parent="1" source="cHWenCPkh5nBEhxCHhPZ-161" target="cHWenCPkh5nBEhxCHhPZ-164" edge="1">
          <mxGeometry relative="1" as="geometry">
            <Array as="points">
              <mxPoint x="2760" y="1480" />
              <mxPoint x="2760" y="1480" />
            </Array>
          </mxGeometry>
        </mxCell>
        <mxCell id="cHWenCPkh5nBEhxCHhPZ-161" value="임시 비번 셋팅 후 메일 보내기&lt;br&gt;&lt;font style=&quot;font-size: 12px&quot;&gt;/users/find_id.nogari&lt;/font&gt;" style="rounded=0;whiteSpace=wrap;html=1;fontSize=15;align=center;verticalAlign=middle;spacingLeft=0;fillColor=#ffe6cc;strokeColor=#d79b00;" parent="1" vertex="1">
          <mxGeometry x="2630" y="1520" width="200" height="60" as="geometry" />
        </mxCell>
        <mxCell id="cHWenCPkh5nBEhxCHhPZ-162" value="메일보내기 성공 HTML&lt;br&gt;&lt;font style=&quot;font-size: 12px&quot;&gt;/users/find_id_mail_success.jsp&lt;/font&gt;" style="rounded=0;whiteSpace=wrap;html=1;fontSize=15;align=center;verticalAlign=middle;spacingLeft=0;fillColor=#f5f5f5;strokeColor=#666666;fontColor=#333333;" parent="1" vertex="1">
          <mxGeometry x="2630" y="1610" width="200" height="60" as="geometry" />
        </mxCell>
        <mxCell id="cHWenCPkh5nBEhxCHhPZ-163" value="users_id" style="edgeStyle=orthogonalEdgeStyle;rounded=0;orthogonalLoop=1;jettySize=auto;html=1;endArrow=block;endFill=1;strokeColor=#0000FF;" parent="1" source="cHWenCPkh5nBEhxCHhPZ-164" target="cHWenCPkh5nBEhxCHhPZ-161" edge="1">
          <mxGeometry relative="1" as="geometry">
            <Array as="points">
              <mxPoint x="2700" y="1480" />
              <mxPoint x="2700" y="1480" />
            </Array>
          </mxGeometry>
        </mxCell>
        <mxCell id="cHWenCPkh5nBEhxCHhPZ-164" value="아이디 입력&lt;br&gt;&lt;font style=&quot;font-size: 12px&quot;&gt;/users/reset_pw.jsp&lt;/font&gt;" style="rounded=0;whiteSpace=wrap;html=1;fontSize=15;align=center;verticalAlign=middle;spacingLeft=0;fillColor=#f5f5f5;fontColor=#333333;strokeColor=#666666;" parent="1" vertex="1">
          <mxGeometry x="2630" y="1360" width="200" height="60" as="geometry" />
        </mxCell>
        <mxCell id="cHWenCPkh5nBEhxCHhPZ-165" value="아이디 찾기" style="rounded=0;whiteSpace=wrap;html=1;fontSize=15;align=left;verticalAlign=top;spacingLeft=7;fillColor=#fff2cc;strokeColor=#d6b656;fontColor=#FF6666;" parent="1" vertex="1">
          <mxGeometry x="2880" y="1320" width="240" height="370" as="geometry" />
        </mxCell>
        <mxCell id="cHWenCPkh5nBEhxCHhPZ-166" value="" style="edgeStyle=orthogonalEdgeStyle;rounded=0;orthogonalLoop=1;jettySize=auto;html=1;endArrow=block;endFill=1;strokeColor=#FF0000;" parent="1" source="cHWenCPkh5nBEhxCHhPZ-168" target="cHWenCPkh5nBEhxCHhPZ-171" edge="1">
          <mxGeometry relative="1" as="geometry">
            <Array as="points">
              <mxPoint x="3040" y="1450" />
              <mxPoint x="3040" y="1450" />
            </Array>
          </mxGeometry>
        </mxCell>
        <mxCell id="cHWenCPkh5nBEhxCHhPZ-167" value="" style="edgeStyle=orthogonalEdgeStyle;rounded=0;orthogonalLoop=1;jettySize=auto;html=1;endArrow=block;endFill=1;strokeColor=#0000FF;" parent="1" source="cHWenCPkh5nBEhxCHhPZ-168" target="cHWenCPkh5nBEhxCHhPZ-169" edge="1">
          <mxGeometry relative="1" as="geometry" />
        </mxCell>
        <mxCell id="cHWenCPkh5nBEhxCHhPZ-168" value="아이디 메일로 보내기&lt;br&gt;&lt;font style=&quot;font-size: 12px&quot;&gt;/users/find_id.nogari&lt;/font&gt;" style="rounded=0;whiteSpace=wrap;html=1;fontSize=15;align=center;verticalAlign=middle;spacingLeft=0;fillColor=#ffe6cc;strokeColor=#d79b00;" parent="1" vertex="1">
          <mxGeometry x="2900" y="1520" width="200" height="60" as="geometry" />
        </mxCell>
        <mxCell id="cHWenCPkh5nBEhxCHhPZ-169" value="아이디 보여주는 HTML&lt;br&gt;&lt;font style=&quot;font-size: 12px&quot;&gt;/users/find_id.jsp&lt;/font&gt;" style="rounded=0;whiteSpace=wrap;html=1;fontSize=15;align=center;verticalAlign=middle;spacingLeft=0;fillColor=#f5f5f5;strokeColor=#666666;fontColor=#333333;" parent="1" vertex="1">
          <mxGeometry x="2900" y="1610" width="200" height="60" as="geometry" />
        </mxCell>
        <mxCell id="cHWenCPkh5nBEhxCHhPZ-170" value="users_email" style="edgeStyle=orthogonalEdgeStyle;rounded=0;orthogonalLoop=1;jettySize=auto;html=1;endArrow=block;endFill=1;strokeColor=#0000FF;" parent="1" source="cHWenCPkh5nBEhxCHhPZ-171" target="cHWenCPkh5nBEhxCHhPZ-168" edge="1">
          <mxGeometry relative="1" as="geometry">
            <Array as="points">
              <mxPoint x="2970" y="1450" />
              <mxPoint x="2970" y="1450" />
            </Array>
          </mxGeometry>
        </mxCell>
        <mxCell id="cHWenCPkh5nBEhxCHhPZ-171" value="이메일 입력&lt;br&gt;&lt;font style=&quot;font-size: 12px&quot;&gt;/users/find_id.jsp&lt;/font&gt;" style="rounded=0;whiteSpace=wrap;html=1;fontSize=15;align=center;verticalAlign=middle;spacingLeft=0;fillColor=#f5f5f5;fontColor=#333333;strokeColor=#666666;" parent="1" vertex="1">
          <mxGeometry x="2900" y="1360" width="200" height="60" as="geometry" />
        </mxCell>
        <mxCell id="cHWenCPkh5nBEhxCHhPZ-172" value="실패 시" style="text;html=1;strokeColor=none;fillColor=none;align=center;verticalAlign=middle;whiteSpace=wrap;rounded=0;fontSize=12;fontColor=#FF0000;" parent="1" vertex="1">
          <mxGeometry x="3030" y="1460" width="60" height="30" as="geometry" />
        </mxCell>
        <mxCell id="cHWenCPkh5nBEhxCHhPZ-173" value="실패 시" style="text;html=1;strokeColor=none;fillColor=none;align=center;verticalAlign=middle;whiteSpace=wrap;rounded=0;fontSize=12;fontColor=#FF0000;" parent="1" vertex="1">
          <mxGeometry x="2750" y="1460" width="60" height="30" as="geometry" />
        </mxCell>
        <mxCell id="cHWenCPkh5nBEhxCHhPZ-174" value="성공 시" style="text;html=1;strokeColor=none;fillColor=none;align=center;verticalAlign=middle;whiteSpace=wrap;rounded=0;fontSize=12;fontColor=#0000FF;" parent="1" vertex="1">
          <mxGeometry x="3000" y="1580" width="60" height="30" as="geometry" />
        </mxCell>
        <mxCell id="cHWenCPkh5nBEhxCHhPZ-175" value="성공 시" style="text;html=1;strokeColor=none;fillColor=none;align=center;verticalAlign=middle;whiteSpace=wrap;rounded=0;fontSize=12;fontColor=#0000FF;" parent="1" vertex="1">
          <mxGeometry x="2730" y="1580" width="60" height="30" as="geometry" />
        </mxCell>
        <mxCell id="cHWenCPkh5nBEhxCHhPZ-176" value="" style="edgeStyle=orthogonalEdgeStyle;rounded=0;orthogonalLoop=1;jettySize=auto;html=1;endArrow=none;endFill=0;strokeColor=#0000FF;exitX=0.5;exitY=0.946;exitDx=0;exitDy=0;exitPerimeter=0;" parent="1" source="cHWenCPkh5nBEhxCHhPZ-165" edge="1">
          <mxGeometry relative="1" as="geometry">
            <mxPoint x="3000" y="1719.999999999999" as="targetPoint" />
            <Array as="points">
              <mxPoint x="3000" y="1690" />
              <mxPoint x="3000" y="1690" />
            </Array>
          </mxGeometry>
        </mxCell>
        <mxCell id="p5MmdP6PvDkjg1opbJVl-1" value="" style="endArrow=classic;html=1;rounded=0;exitX=0.75;exitY=0;exitDx=0;exitDy=0;entryX=0.75;entryY=1;entryDx=0;entryDy=0;" parent="1" source="cHWenCPkh5nBEhxCHhPZ-20" target="cHWenCPkh5nBEhxCHhPZ-19" edge="1">
          <mxGeometry width="50" height="50" relative="1" as="geometry">
            <mxPoint x="-640" y="870" as="sourcePoint" />
            <mxPoint x="-590" y="820" as="targetPoint" />
            <Array as="points">
              <mxPoint x="-375" y="820" />
              <mxPoint x="-351" y="820" />
            </Array>
          </mxGeometry>
        </mxCell>
        <mxCell id="cHWenCPkh5nBEhxCHhPZ-126" value="item_idx&lt;br&gt;users_grade&lt;br&gt;&lt;span style=&quot;color: rgb(255 , 0 , 0)&quot;&gt;(관리자 Only)&lt;br&gt;&lt;/span&gt;" style="text;html=1;strokeColor=none;align=center;verticalAlign=middle;whiteSpace=wrap;rounded=0;fillColor=#FFFFFF;" parent="1" vertex="1">
          <mxGeometry x="1420" y="-219" width="90" height="49" as="geometry" />
        </mxCell>
        <mxCell id="cHWenCPkh5nBEhxCHhPZ-123" value="users_Idx&lt;br&gt;&lt;font color=&quot;#ff0000&quot;&gt;(관리자 Only)&lt;/font&gt;&lt;br&gt;itemType&lt;br&gt;itemName&lt;br&gt;itemDetail&lt;br&gt;itemPeriod&lt;br&gt;itemTime&lt;br&gt;itemHomepage&lt;br&gt;itemParking&lt;br&gt;itemAddress&lt;br&gt;&lt;font color=&quot;#3333ff&quot;&gt;attach(사진)&lt;/font&gt;" style="text;html=1;strokeColor=none;align=center;verticalAlign=middle;whiteSpace=wrap;rounded=0;fillColor=#FFFFFF;" parent="1" vertex="1">
          <mxGeometry x="1585" y="-410" width="90" height="160" as="geometry" />
        </mxCell>
        <mxCell id="k6I8Gd16gWBJy7uJMTZF-13" value="" style="edgeStyle=orthogonalEdgeStyle;rounded=0;orthogonalLoop=1;jettySize=auto;html=1;exitX=0.5;exitY=0;exitDx=0;exitDy=0;entryX=0.5;entryY=1;entryDx=0;entryDy=0;strokeColor=#000000;endArrow=none;" parent="1" source="cHWenCPkh5nBEhxCHhPZ-117" target="cHWenCPkh5nBEhxCHhPZ-123" edge="1">
          <mxGeometry relative="1" as="geometry">
            <mxPoint x="1630" y="-290" as="sourcePoint" />
            <mxPoint x="1630" y="-440" as="targetPoint" />
          </mxGeometry>
        </mxCell>
        <mxCell id="k6I8Gd16gWBJy7uJMTZF-23" value="&lt;font color=&quot;#0000ff&quot;&gt;수정 완료&lt;br&gt;&lt;/font&gt;" style="text;html=1;strokeColor=none;fillColor=none;align=center;verticalAlign=middle;whiteSpace=wrap;rounded=0;" parent="1" vertex="1">
          <mxGeometry x="1450" y="-505" width="70" height="30" as="geometry" />
        </mxCell>
        <mxCell id="k6I8Gd16gWBJy7uJMTZF-26" value="&lt;font color=&quot;#0000ff&quot;&gt;삭제 완료시&lt;/font&gt;" style="text;html=1;strokeColor=none;fillColor=none;align=center;verticalAlign=middle;whiteSpace=wrap;rounded=0;fontColor=#FF0000;" parent="1" vertex="1">
          <mxGeometry x="1330" y="-60" width="80" height="30" as="geometry" />
        </mxCell>
        <mxCell id="k6I8Gd16gWBJy7uJMTZF-28" value="&lt;font color=&quot;#0000ff&quot;&gt;등록 성공&lt;/font&gt;" style="text;html=1;strokeColor=none;fillColor=none;align=center;verticalAlign=middle;whiteSpace=wrap;rounded=0;fontColor=#FF0000;" parent="1" vertex="1">
          <mxGeometry x="1070" y="-540" width="60" height="30" as="geometry" />
        </mxCell>
        <mxCell id="HJ5aTW5SzzA_CiA0n5Hh-13" value="item_idx" style="edgeStyle=orthogonalEdgeStyle;rounded=0;orthogonalLoop=1;jettySize=auto;html=1;exitX=0.75;exitY=0;exitDx=0;exitDy=0;entryX=0.917;entryY=1.05;entryDx=0;entryDy=0;entryPerimeter=0;" parent="1" source="HJ5aTW5SzzA_CiA0n5Hh-1" target="cHWenCPkh5nBEhxCHhPZ-100" edge="1">
          <mxGeometry x="-0.6637" relative="1" as="geometry">
            <Array as="points">
              <mxPoint x="1220" y="160" />
              <mxPoint x="1220" y="20" />
              <mxPoint x="1255" y="20" />
            </Array>
            <mxPoint as="offset" />
          </mxGeometry>
        </mxCell>
        <mxCell id="HJ5aTW5SzzA_CiA0n5Hh-1" value="관광지 댓글 등록&lt;br&gt;&lt;font style=&quot;font-size: 12px&quot;&gt;/item_reply/insert.nogari&lt;/font&gt;" style="rounded=0;whiteSpace=wrap;html=1;fontSize=15;align=center;verticalAlign=middle;spacingLeft=0;fillColor=#ffe6cc;strokeColor=#d79b00;" parent="1" vertex="1">
          <mxGeometry x="1120" y="160" width="180" height="60" as="geometry" />
        </mxCell>
        <mxCell id="HJ5aTW5SzzA_CiA0n5Hh-14" value="item_idx" style="edgeStyle=orthogonalEdgeStyle;rounded=0;orthogonalLoop=1;jettySize=auto;html=1;exitX=0.25;exitY=0;exitDx=0;exitDy=0;entryX=0.917;entryY=1.067;entryDx=0;entryDy=0;entryPerimeter=0;" parent="1" source="HJ5aTW5SzzA_CiA0n5Hh-4" target="cHWenCPkh5nBEhxCHhPZ-100" edge="1">
          <mxGeometry x="-0.9038" relative="1" as="geometry">
            <Array as="points">
              <mxPoint x="1415" y="20" />
              <mxPoint x="1260" y="20" />
              <mxPoint x="1260" y="-96" />
            </Array>
            <mxPoint as="offset" />
          </mxGeometry>
        </mxCell>
        <mxCell id="HJ5aTW5SzzA_CiA0n5Hh-4" value="관광지 댓글 삭제&lt;br&gt;&lt;font style=&quot;font-size: 12px&quot;&gt;/item_reply/delete.nogari&lt;/font&gt;" style="rounded=0;whiteSpace=wrap;html=1;fontSize=15;align=center;verticalAlign=middle;spacingLeft=0;fillColor=#ffe6cc;strokeColor=#d79b00;" parent="1" vertex="1">
          <mxGeometry x="1370" y="160" width="180" height="60" as="geometry" />
        </mxCell>
        <mxCell id="HJ5aTW5SzzA_CiA0n5Hh-16" style="edgeStyle=orthogonalEdgeStyle;rounded=0;orthogonalLoop=1;jettySize=auto;html=1;" parent="1" source="HJ5aTW5SzzA_CiA0n5Hh-5" target="cHWenCPkh5nBEhxCHhPZ-100" edge="1">
          <mxGeometry relative="1" as="geometry">
            <Array as="points">
              <mxPoint x="1650" y="20" />
              <mxPoint x="1250" y="20" />
            </Array>
          </mxGeometry>
        </mxCell>
        <mxCell id="HJ5aTW5SzzA_CiA0n5Hh-18" value="item_idx" style="edgeLabel;html=1;align=center;verticalAlign=middle;resizable=0;points=[];" parent="HJ5aTW5SzzA_CiA0n5Hh-16" vertex="1" connectable="0">
          <mxGeometry x="-0.9162" y="2" relative="1" as="geometry">
            <mxPoint as="offset" />
          </mxGeometry>
        </mxCell>
        <mxCell id="HJ5aTW5SzzA_CiA0n5Hh-5" value="관광지 댓글 수정&lt;br&gt;&lt;font style=&quot;font-size: 12px&quot;&gt;/item_reply/update.nogari&lt;/font&gt;" style="rounded=0;whiteSpace=wrap;html=1;fontSize=15;align=center;verticalAlign=middle;spacingLeft=0;fillColor=#ffe6cc;strokeColor=#d79b00;" parent="1" vertex="1">
          <mxGeometry x="1620" y="160" width="180" height="60" as="geometry" />
        </mxCell>
        <mxCell id="rvmoemQCEeEkl9BPoss9-1" value="users_id" style="text;html=1;strokeColor=none;fillColor=default;align=center;verticalAlign=middle;whiteSpace=wrap;rounded=0;" parent="1" vertex="1">
          <mxGeometry x="-840" y="1225" width="60" height="20" as="geometry" />
        </mxCell>
        <mxCell id="rvmoemQCEeEkl9BPoss9-2" value="users_idx" style="text;html=1;strokeColor=none;fillColor=default;align=center;verticalAlign=middle;whiteSpace=wrap;rounded=0;" parent="1" vertex="1">
          <mxGeometry x="-605" y="1060" width="50" height="20" as="geometry" />
        </mxCell>
        <mxCell id="rvmoemQCEeEkl9BPoss9-4" value="users_idx" style="text;html=1;strokeColor=none;fillColor=default;align=center;verticalAlign=middle;whiteSpace=wrap;rounded=0;" parent="1" vertex="1">
          <mxGeometry x="-677.5" y="1080" width="50" height="20" as="geometry" />
        </mxCell>
        <mxCell id="upsEj7CZA0ea6hPrhuI7-4" value="users_Idx&lt;br&gt;&lt;font color=&quot;#ff0000&quot;&gt;(관리자 Only)&lt;/font&gt;&lt;br&gt;" style="text;html=1;strokeColor=none;align=center;verticalAlign=middle;whiteSpace=wrap;rounded=0;fillColor=#FFFFFF;" vertex="1" parent="1">
          <mxGeometry x="1421" y="-80" width="90" height="40" as="geometry" />
        </mxCell>
        <mxCell id="upsEj7CZA0ea6hPrhuI7-5" value="" style="edgeStyle=orthogonalEdgeStyle;rounded=0;orthogonalLoop=1;jettySize=auto;html=1;exitX=0.5;exitY=1;exitDx=0;exitDy=0;entryX=0;entryY=0.75;entryDx=0;entryDy=0;fontColor=#FF0000;strokeColor=#0000FF;startArrow=none;endArrow=none;" edge="1" parent="1" source="cHWenCPkh5nBEhxCHhPZ-118" target="upsEj7CZA0ea6hPrhuI7-4">
          <mxGeometry relative="1" as="geometry">
            <Array as="points">
              <mxPoint x="1630" y="-60" />
            </Array>
            <mxPoint x="1630" y="-100" as="sourcePoint" />
            <mxPoint x="1090" y="-335" as="targetPoint" />
          </mxGeometry>
        </mxCell>
      </root>
    </mxGraphModel>
  </diagram>
</mxfile>
